<?xml version="1.0" encoding="utf-8"?>
<!-- Generator: Adobe Illustrator 26.1.0, SVG Export Plug-In . SVG Version: 6.00 Build 0)  -->
<svg version="1.1" xmlns="http://www.w3.org/2000/svg" xmlns:xlink="http://www.w3.org/1999/xlink" x="0px" y="0px"
	 viewBox="0 0 1920 1080" style="enable-background:new 0 0 1920 1080;" xml:space="preserve">
<style type="text/css">
	.st0{display:none;}
	.st1{display:inline;}
	.st2{fill:#FFFFFF;}
	.st3{fill:#FF6D00;}
</style>
<g id="Layer_1" class="st0">
	<g class="st1">
		<path d="M346.75,933.81c0,52.15-42.27,94.42-94.42,94.42s-94.42-42.27-94.42-94.42s42.27-94.42,94.42-94.42
			S346.75,881.66,346.75,933.81z M252.32,890.77c-23.77,0-43.04,19.27-43.04,43.04s19.27,43.04,43.04,43.04s43.04-19.27,43.04-43.04
			S276.09,890.77,252.32,890.77z"/>
	</g>
	<g class="st1">
		<path d="M252.13,891.96c-13.24,0-25.08,4.69-32.97,14.09c0,0-0.87,31.8-6.42,33.32c-5.81,1.59-3.44-14.36-8.94-14.63
			c-9.32-0.46-25.2,26.01-30.28,20.93c-3.66-3.66,9.23-15.19,7.51-16.81c-1.68-1.57-12.39,11.93-15.85,8.47
			c-3.45-3.45,9.55-14.43,7.72-16.26c-1.83-1.83-12.97,11.01-16.66,7.32c-3.05-3.05,9.35-14.22,7.92-15.65
			c-2.03-2.03-12.92,11.18-15.95,7.62c-3.16-3.71,22.35-35.93,30.15-45.51c17.48-21.48,43.91-36.75,73.76-36.75"/>
		<path class="st2" d="M175.09,947.28c-0.88,0-1.64-0.31-2.25-0.93c-2.77-2.77,1.05-7.9,4.41-12.43c0.94-1.26,2.13-2.86,2.68-3.86
			c-0.97,0.62-2.5,1.92-3.7,2.95c-4.24,3.61-9.04,7.7-11.72,5.02c-2.6-2.6,1.12-7.38,4.4-11.6c1.17-1.51,2.71-3.49,3.12-4.46
			c-0.96,0.38-2.91,1.83-4.39,2.94c-4.37,3.25-9.31,6.94-12.07,4.18c-2.41-2.41,1.37-7.27,4.71-11.56c1-1.28,2.29-2.95,2.82-3.89
			c-1.1,0.47-3.21,2.14-4.7,3.31c-4.23,3.33-8.6,6.77-10.9,4.06c-0.82-0.96-2.52-2.97,10.92-21.74
			c7.69-10.74,16.66-21.85,19.22-25.01c19.19-23.58,46.35-37.11,74.51-37.11v1.93c-27.57,0-54.19,13.27-73.01,36.4
			c-2.52,3.1-11.33,14.02-18.95,24.64c-12.2,16.99-11.35,19.43-11.21,19.65c1.09,1.28,5.57-2.23,8.24-4.33
			c3.58-2.81,6.16-4.85,7.66-3.35c1.18,1.18-0.33,3.11-3.06,6.63c-2.12,2.73-6.07,7.81-4.86,9.02c1.58,1.58,6.38-2,9.56-4.36
			c3.47-2.59,5.76-4.3,7.11-2.95c1.37,1.37-0.43,3.69-3.17,7.2c-2.37,3.05-5.95,7.65-4.56,9.05c1.42,1.42,6.23-2.68,9.11-5.12
			c3.37-2.87,5.41-4.6,6.71-3.37c1.32,1.24-0.27,3.37-2.89,6.91c-2.47,3.32-6.19,8.33-4.6,9.92c0.25,0.25,0.53,0.37,0.89,0.37
			c0,0,0.01,0,0.01,0c2.44-0.02,6.99-4.69,11.39-9.21c6.04-6.2,12.3-12.62,17.35-12.37c3.4,0.17,4.3,4.36,5.17,8.42
			c0.55,2.55,1.17,5.44,2.34,6.15c0.19,0.12,0.52,0.26,1.13,0.09c3.35-0.91,5.36-19.51,5.71-32.41l0.01-0.34l0.22-0.26
			c7.82-9.31,19.79-14.44,33.71-14.44v1.93c-13.21,0-24.57,4.79-32.02,13.5c-0.05,1.61-0.32,8.69-1.12,15.83
			c-1.7,15.18-4.24,17.57-6,18.05c-0.98,0.27-1.87,0.17-2.64-0.3c-1.88-1.14-2.53-4.18-3.22-7.4c-0.72-3.34-1.46-6.8-3.38-6.9
			c-4.18-0.19-10.4,6.17-15.88,11.79c-5.1,5.24-9.51,9.77-12.76,9.79C175.1,947.28,175.09,947.28,175.09,947.28z"/>
	</g>
	<g class="st1">
		<path d="M252,975.96c13.24,0,25.08-5.33,32.97-14.74c0,0,0.87-31.8,6.42-33.32c5.81-1.59,3.44,14.36,8.94,14.63
			c9.32,0.46,25.2-26.01,30.28-20.93c3.66,3.66-9.23,15.19-7.51,16.81c1.68,1.57,12.39-11.93,15.85-8.47
			c3.45,3.45-9.55,14.43-7.72,16.26c1.83,1.83,12.97-11.01,16.66-7.32c3.05,3.05-9.35,14.22-7.92,15.65
			c2.03,2.03,12.92-11.18,15.95-7.62c3.16,3.71-22.35,35.93-30.15,45.51c-17.48,21.48-43.91,36.75-73.76,36.75"/>
		<path class="st2" d="M252,1030.14v-1.93c27.57,0,54.19-13.27,73.01-36.4c2.52-3.1,11.34-14.03,18.95-24.64
			c12.2-16.99,11.35-19.43,11.21-19.65c-1.09-1.28-5.57,2.23-8.24,4.33c-3.58,2.81-6.16,4.85-7.66,3.35
			c-1.18-1.18,0.33-3.11,3.06-6.63c2.12-2.73,6.07-7.81,4.86-9.02c-1.58-1.58-6.38,2-9.56,4.37c-3.47,2.59-5.76,4.29-7.11,2.95
			c-1.37-1.37,0.43-3.69,3.17-7.2c2.37-3.05,5.95-7.65,4.56-9.05c-1.42-1.42-6.23,2.68-9.11,5.12c-3.37,2.87-5.41,4.6-6.71,3.37
			c-1.32-1.24,0.27-3.37,2.89-6.91c2.47-3.32,6.19-8.33,4.6-9.92c-0.26-0.26-0.55-0.39-0.9-0.37c-2.44,0.02-6.99,4.69-11.39,9.21
			c-5.93,6.09-12.05,12.38-17.06,12.38c-0.1,0-0.19,0-0.29-0.01c-3.4-0.17-4.3-4.36-5.17-8.42c-0.55-2.55-1.17-5.44-2.34-6.15
			c-0.19-0.12-0.52-0.26-1.13-0.09c-3.04,0.83-5.29,17.13-5.71,32.41l-0.01,0.34l-0.22,0.26c-8.05,9.58-20.33,15.08-33.71,15.08V975
			c12.88,0,24.23-5.02,32.02-14.14c0.05-1.61,0.32-8.69,1.12-15.83c1.7-15.18,4.24-17.57,6-18.05c0.98-0.27,1.87-0.17,2.64,0.3
			c1.88,1.14,2.53,4.18,3.22,7.4c0.72,3.34,1.46,6.8,3.38,6.9c4.17,0.21,10.4-6.17,15.88-11.79c5.1-5.24,9.51-9.77,12.76-9.79
			c0.01,0,0.02,0,0.02,0c0.88,0,1.64,0.31,2.25,0.93c2.77,2.77-1.05,7.9-4.41,12.43c-0.94,1.26-2.13,2.86-2.68,3.86
			c0.97-0.62,2.5-1.92,3.7-2.95c4.24-3.61,9.04-7.7,11.72-5.02c2.6,2.6-1.12,7.38-4.4,11.6c-1.17,1.51-2.71,3.49-3.12,4.46
			c0.96-0.38,2.91-1.83,4.39-2.93c4.36-3.25,9.31-6.94,12.07-4.18c2.41,2.41-1.37,7.27-4.71,11.56c-1,1.28-2.29,2.95-2.82,3.89
			c1.1-0.47,3.21-2.14,4.7-3.31c4.23-3.33,8.6-6.77,10.9-4.06c0.82,0.96,2.52,2.97-10.92,21.74c-7.68,10.73-16.65,21.85-19.22,25.01
			C307.31,1016.61,280.16,1030.14,252,1030.14z"/>
	</g>
</g>
<g id="Layer_3" class="st0">
	<g class="st1">
		<g>
			<path class="st3" d="M344.7,583.61c0,51.4-41.67,93.08-93.08,93.08s-93.08-41.67-93.08-93.08c0-51.4,41.67-93.08,93.08-93.08
				S344.7,532.2,344.7,583.61z M251.63,541.19c-23.43,0-42.42,18.99-42.42,42.42s18.99,42.42,42.42,42.42s42.42-18.99,42.42-42.42
				S275.05,541.19,251.63,541.19z"/>
		</g>
		<g>
			<path class="st3" d="M251.43,542.35c-13.05,0-24.72,4.63-32.5,13.89c0,0-0.86,31.35-6.33,32.84c-5.73,1.56-3.39-14.16-8.81-14.42
				c-9.19-0.45-24.84,25.64-29.85,20.63c-3.61-3.61,9.1-14.98,7.41-16.57c-1.65-1.55-12.21,11.76-15.62,8.35
				c-3.41-3.41,9.41-14.22,7.61-16.02c-1.8-1.8-12.78,10.85-16.43,7.21c-3-3,9.21-14.02,7.81-15.42c-2-2-12.74,11.02-15.72,7.51
				c-3.11-3.66,22.03-35.42,29.72-44.87c17.23-21.17,43.29-36.23,72.71-36.23"/>
			<path class="st2" d="M175.49,597.2c-0.94,0-1.79-0.35-2.45-1.01c-2.92-2.92,0.92-8.1,4.32-12.67c0.55-0.73,1.18-1.59,1.72-2.37
				c-0.74,0.59-1.57,1.29-2.27,1.89c-4.28,3.64-9.14,7.78-11.98,4.93c-2.76-2.76,0.99-7.59,4.31-11.85
				c0.84-1.08,1.89-2.43,2.53-3.42c-0.97,0.6-2.28,1.58-3.34,2.36c-4.41,3.28-9.4,7.01-12.31,4.09c-2.58-2.58,1.08-7.27,4.61-11.82
				c0.66-0.85,1.45-1.87,2.05-2.72c-1.07,0.7-2.43,1.77-3.47,2.59c-4.29,3.37-8.72,6.86-11.18,3.96
				c-0.93-1.09-2.65-3.11,10.75-21.82c7.58-10.59,16.43-21.56,18.96-24.67c18.98-23.32,45.84-36.7,73.69-36.7v2.53
				c-27.09,0-53.23,13.03-71.73,35.76c-2.42,2.97-10.89,13.47-18.32,23.79c-11.31,15.69-11.5,18.94-11.38,19.5
				c0.97,0.89,5.47-2.64,7.65-4.35c3.65-2.87,6.29-4.95,7.97-3.28c1.36,1.36-0.19,3.35-2.99,6.95c-1.59,2.04-5.82,7.48-4.82,8.47
				c1.36,1.36,6.15-2.2,9.01-4.33c3.55-2.65,5.9-4.4,7.42-2.88c1.55,1.55-0.3,3.93-3.1,7.52c-1.99,2.56-5.7,7.32-4.52,8.5
				c1.19,1.19,6.16-3.03,8.55-5.07c3.46-2.94,5.54-4.72,7.04-3.31c1.51,1.41-0.12,3.6-2.82,7.23c-2.08,2.79-5.94,7.99-4.56,9.36
				c0.19,0.19,0.4,0.27,0.66,0.27c2.27-0.01,6.91-4.78,11-8.98c5.89-6.05,11.97-12.3,17.05-12.3c0.1,0,0.2,0,0.3,0.01
				c3.6,0.18,4.55,4.63,5.39,8.55c0.5,2.33,1.12,5.23,2.16,5.86c0.15,0.09,0.39,0.18,0.87,0.05c0.27-0.07,2.64-1.13,4.29-15.9
				c0.88-7.88,1.1-15.68,1.11-15.76l0.01-0.44l0.28-0.34c7.77-9.25,19.65-14.35,33.47-14.35v2.53c-12.89,0-23.97,4.65-31.25,13.11
				c-0.06,1.79-0.33,8.62-1.11,15.52c-1.68,14.98-4.16,17.52-6.14,18.06c-1.06,0.29-2.01,0.18-2.85-0.33
				c-1.97-1.2-2.62-4.26-3.32-7.49c-0.65-3.03-1.39-6.47-3.04-6.55c-3.98-0.21-10.06,6.03-15.41,11.53
				c-5.08,5.22-9.47,9.72-12.8,9.75C175.5,597.2,175.5,597.2,175.49,597.2z M150.01,569.62
				C150.01,569.62,150.01,569.62,150.01,569.62L150.01,569.62z"/>
		</g>
		<g>
			<path class="st3" d="M251.31,625.16c13.05,0,24.72-5.26,32.5-14.53c0,0,0.86-31.35,6.33-32.84c5.73-1.56,3.39,14.16,8.81,14.42
				c9.19,0.45,24.84-25.64,29.85-20.63c3.61,3.61-9.1,14.98-7.41,16.57c1.65,1.55,12.21-11.76,15.62-8.35
				c3.41,3.41-9.41,14.22-7.61,16.02c1.8,1.8,12.78-10.85,16.43-7.21c3,3-9.21,14.02-7.81,15.42c2,2,12.74-11.02,15.72-7.51
				c3.11,3.66-22.03,35.42-29.72,44.87c-17.23,21.17-43.29,36.23-72.71,36.23"/>
			<path class="st2" d="M251.31,678.57v-1.9c27.18,0,53.41-13.08,71.97-35.88c2.48-3.05,11.18-13.83,18.68-24.29
				c12.02-16.75,11.19-19.15,11.05-19.37c-1.08-1.27-5.49,2.2-8.12,4.27c-3.53,2.77-6.07,4.77-7.55,3.3
				c-1.16-1.16,0.32-3.07,3.02-6.54c2.09-2.69,5.99-7.7,4.79-8.89c-1.56-1.56-6.29,1.97-9.42,4.3c-3.42,2.55-5.68,4.23-7,2.91
				c-1.35-1.35,0.43-3.64,3.12-7.1c2.34-3,5.87-7.54,4.49-8.92c-1.4-1.4-6.15,2.64-8.98,5.05c-3.32,2.83-5.33,4.54-6.62,3.32
				c-1.3-1.22,0.26-3.33,2.85-6.81c2.43-3.27,6.1-8.21,4.53-9.78c-0.25-0.25-0.54-0.37-0.89-0.36c-2.41,0.02-6.89,4.62-11.23,9.08
				c-5.96,6.12-12.1,12.45-17.1,12.19c-3.36-0.17-4.24-4.3-5.1-8.3c-0.54-2.51-1.15-5.36-2.3-6.07c-0.19-0.12-0.52-0.25-1.12-0.09
				c-3,0.82-5.22,16.89-5.63,31.95l-0.22,0.58c-7.93,9.45-20.04,14.87-33.23,14.87v-1.9c12.69,0,23.89-4.95,31.56-13.94
				c0.05-1.59,0.32-8.57,1.11-15.61c1.68-14.96,4.18-17.32,5.91-17.79c0.97-0.26,1.84-0.16,2.6,0.3c1.85,1.13,2.49,4.12,3.17,7.29
				c0.71,3.3,1.44,6.71,3.33,6.8c4.12,0.19,10.25-6.08,15.65-11.62c5.03-5.17,9.38-9.63,12.58-9.65c0.88,0.01,1.63,0.3,2.25,0.92
				c2.73,2.73-1.03,7.79-4.35,12.25c-0.92,1.24-2.1,2.82-2.64,3.81c0.95-0.61,2.46-1.9,3.65-2.9c4.18-3.56,8.91-7.59,11.55-4.95
				c2.56,2.56-1.1,7.28-4.33,11.43c-1.15,1.48-2.67,3.44-3.07,4.4c0.95-0.38,2.86-1.81,4.32-2.89c4.3-3.21,9.18-6.84,11.9-4.12
				c2.38,2.38-1.35,7.17-4.64,11.4c-0.98,1.27-2.26,2.9-2.78,3.83c1.08-0.47,3.17-2.11,4.63-3.26c4.17-3.28,8.48-6.67,10.75-4
				c0.81,0.95,2.49,2.92-10.76,21.43c-7.58,10.58-16.42,21.54-18.95,24.65C305.83,665.24,279.06,678.57,251.31,678.57z"/>
		</g>
		<g>
			<path class="st3" d="M405.09,580.94h-6.8v-8.97h6.8v-13.09h11.13v13.09h14.22v8.97h-14.22v23.19c0,4.74,1.75,7.21,6.6,7.21
				c2.47,0,4.64-0.52,7.01-1.24l1.34,9.9c-3.61,1.13-6.08,1.75-10.92,1.75c-10.62,0-15.15-7.01-15.15-16.08V580.94z"/>
			<path class="st3" d="M441.48,620.42v-48.44h10.51v14.53l0.93,0.1c2.78-11.75,7.32-15.15,14.33-15.15H469v12.47h-2.68
				c-10.2,0-13.81,3.61-13.81,13.5v22.99H441.48z"/>
			<path class="st3" d="M508.58,608.87h-1.13c-2.47,7.83-8.04,12.57-16.59,12.57c-8.66,0-14.74-4.12-14.74-13.61
				c0-8.66,5.26-14.95,17.52-14.95h14.43v-3.3c0-6.29-2.58-9.9-9.38-9.9c-5.67,0-8.97,2.89-10.2,8.56l-10.51-2.37
				c1.86-9.17,8.76-15.05,21.13-15.05c14.02,0,20,6.6,20,18.66v30.92h-10.51V608.87z M508.07,602.17v-1.96h-12.57
				c-5.57,0-8.76,2.06-8.76,6.08c0,3.5,2.16,6.49,8.45,6.49C502.91,612.79,508.07,608.26,508.07,602.17z"/>
			<path class="st3" d="M565.27,607.64h-0.72c-2.47,8.35-8.24,14.12-16.9,14.12c-11.13,0-17.63-8.97-17.63-25.36
				c0-16.59,6.6-25.77,17.93-25.66c8.76-0.1,14.12,5.46,16.59,13.91h0.72v-30.41h11.03v66.17h-11.03V607.64z M565.27,598.36v-3.71
				c0-8.35-4.84-13.91-12.37-13.91c-8.04,0-11.96,5.05-11.96,15.67c0,10.41,3.71,15.46,11.96,15.46
				C560.32,611.86,565.27,606.61,565.27,598.36z"/>
			<path class="st3" d="M587.54,596.82c0-16.39,9.28-26.08,24.43-26.08c14.64,0,21.75,8.86,21.75,22.16c0,1.86,0,4.02-0.21,6.49
				h-34.94c0.83,8.76,5.26,13.19,13.5,13.19c7.73,0,10.41-3.71,11.75-8.35l9.48,2.68c-2.27,8.76-8.35,14.74-21.34,14.74
				C597.12,621.66,587.54,613,587.54,596.82z M598.67,591.97h24.84c-0.41-8.35-4.12-12.68-11.85-12.68
				C604.13,579.29,599.7,583.31,598.67,591.97z"/>
			<path class="st3" d="M707.93,620.62c-2.37,0.41-4.64,0.52-6.6,0.52c-7.32,0-14.43-2.47-20.82-6.39
				c-4.23,4.22-11.34,6.7-19.38,6.7c-11.44,0-19.48-5.57-19.48-16.59c0-9.48,6.08-14.53,14.74-17.93
				c-1.96-4.43-3.09-8.76-3.09-12.37c0-12.06,8.97-17.21,18.76-17.21c12.16,0,17.32,5.77,17.32,13.6
				c0,11.44-11.85,15.15-21.44,17.21c3.71,6.29,9.38,12.27,16.18,16.49c5.98-7.01,9.38-14.74,10.82-23.09l10,1.34
				c-1.65,10.2-7.01,18.45-15.15,24.74c3.92,1.65,8.04,2.58,12.26,2.58c1.34,0,3.61,0,5.46-0.1L707.93,620.62z M674.74,610.63
				c-7.01-5.67-12.78-12.99-16.59-20.1c-4.54,2.78-6.49,6.9-6.49,11.85c0,6.18,4.12,10.51,12.68,10.51
				C668.66,612.89,671.85,612.07,674.74,610.63z M665.77,583.93c9.07-2.78,13.71-6.39,13.71-11.96c0-3.92-2.16-6.49-7.22-6.49
				c-5.46,0-8.66,3.3-8.66,9.07C663.61,577.44,664.43,580.63,665.77,583.93z"/>
			<path class="st3" d="M737.1,638.15c-18.35,0-23.71-3.92-23.71-10.1c0-4.23,4.54-7.32,11.13-8.76v-0.41
				c-4.33-0.82-6.6-3.09-6.6-6.49c0-2.58,2.06-4.84,5.46-6.49l3.71-2.06c-7.21-2.37-11.03-7.63-11.03-14.95
				c0-10.93,7.94-16.9,21.34-16.9h24.02v8.55h-5.57c-2.58,0-5.67-0.21-9.79-0.52l-0.1,0.93c6.39,1.24,11.75,3.92,11.75,10.31
				c0,8.66-7.32,13.91-20.82,13.91c-3.09,0-5.77-0.31-8.14-0.93l-1.13,1.75c-0.72,1.24-1.24,2.06-1.24,3.09
				c0,1.96,1.55,2.68,4.74,2.68c5.46,0,11.03-0.1,16.29-0.1c10.2,0,15.15,4.43,15.15,11.96C762.56,633.4,756.27,638.15,737.1,638.15
				z M753.69,623.92c0-2.78-1.96-4.74-6.7-4.74h-17.01c-5.26,0-7.94,2.68-7.94,5.36c0,3.92,3.09,5.57,15.67,5.57
				C750.71,630.11,753.69,628.05,753.69,623.92z M726.07,589.09c0,5.15,2.89,8.45,10.92,8.45s11.23-3.3,11.23-8.45
				c0-5.15-3.71-8.45-11.34-8.45C729.16,580.63,726.07,584.03,726.07,589.09z"/>
			<path class="st3" d="M801.83,608.87h-1.13c-2.47,7.83-8.04,12.57-16.59,12.57c-8.66,0-14.74-4.12-14.74-13.61
				c0-8.66,5.26-14.95,17.52-14.95h14.43v-3.3c0-6.29-2.58-9.9-9.38-9.9c-5.67,0-8.97,2.89-10.2,8.56l-10.51-2.37
				c1.86-9.17,8.76-15.05,21.13-15.05c14.02,0,20,6.6,20,18.66v30.92h-10.51V608.87z M801.32,602.17v-1.96h-12.57
				c-5.57,0-8.76,2.06-8.76,6.08c0,3.5,2.16,6.49,8.45,6.49C796.16,612.79,801.32,608.26,801.32,602.17z"/>
			<path class="st3" d="M826.26,563.73v-8.97h12.06v8.97H826.26z M826.67,620.42v-48.44h11.13v48.44H826.67z"/>
			<path class="st3" d="M863.57,620.42h-11.03v-48.44h10.82v12.78h0.93c2.68-8.97,8.86-14.02,17.01-14.02
				c10.1,0,14.95,6.8,14.95,17.31v32.37h-11.03v-29.48c0-5.88-2.58-10.2-9.28-10.2c-7.42,0-12.37,4.95-12.37,12.26V620.42z"/>
		</g>
	</g>
</g>
<g id="Layer_4" class="st0">
	<g class="st1">
		<g>
			<path d="M340.23,259.67c0,52.15-42.27,94.42-94.42,94.42s-94.42-42.27-94.42-94.42s42.27-94.42,94.42-94.42
				S340.23,207.52,340.23,259.67z M245.81,216.63c-23.77,0-43.04,19.27-43.04,43.04s19.27,43.04,43.04,43.04
				s43.04-19.27,43.04-43.04S269.58,216.63,245.81,216.63z"/>
		</g>
		<g>
			<path d="M245.62,217.82c-13.24,0-25.08,4.69-32.97,14.09c0,0-0.87,31.8-6.42,33.32c-5.81,1.59-3.44-14.36-8.94-14.63
				c-9.32-0.46-25.2,26.01-30.28,20.93c-3.66-3.66,9.23-15.19,7.51-16.81c-1.68-1.57-12.39,11.93-15.85,8.47
				c-3.45-3.45,9.55-14.43,7.72-16.26c-1.83-1.83-12.97,11.01-16.66,7.32c-3.05-3.05,9.35-14.22,7.92-15.65
				c-2.03-2.03-12.92,11.18-15.95,7.62c-3.16-3.71,22.35-35.93,30.15-45.51c17.48-21.48,43.91-36.75,73.76-36.75"/>
			<path class="st2" d="M168.57,273.14c-0.88,0-1.64-0.31-2.25-0.93c-2.77-2.77,1.05-7.9,4.41-12.43c0.94-1.26,2.13-2.86,2.68-3.86
				c-0.97,0.62-2.5,1.92-3.7,2.95c-4.24,3.61-9.04,7.7-11.72,5.02c-2.6-2.6,1.12-7.38,4.4-11.6c1.17-1.51,2.71-3.49,3.12-4.46
				c-0.96,0.38-2.91,1.83-4.39,2.94c-4.37,3.25-9.31,6.94-12.07,4.18c-2.41-2.41,1.37-7.27,4.71-11.56c1-1.28,2.29-2.95,2.82-3.89
				c-1.1,0.47-3.21,2.14-4.7,3.31c-4.23,3.33-8.6,6.77-10.9,4.06c-0.82-0.96-2.52-2.97,10.92-21.74
				c7.69-10.74,16.66-21.85,19.22-25.01C190.3,176.53,217.46,163,245.62,163v1.93c-27.57,0-54.19,13.27-73.01,36.4
				c-2.52,3.1-11.33,14.02-18.95,24.64c-12.2,16.99-11.35,19.43-11.21,19.65c1.09,1.28,5.57-2.23,8.24-4.33
				c3.58-2.81,6.16-4.85,7.66-3.35c1.18,1.18-0.33,3.11-3.06,6.63c-2.12,2.73-6.07,7.81-4.86,9.02c1.58,1.58,6.38-2,9.56-4.36
				c3.47-2.59,5.76-4.3,7.11-2.95c1.37,1.37-0.43,3.69-3.17,7.2c-2.37,3.05-5.95,7.65-4.56,9.05c1.42,1.42,6.23-2.68,9.11-5.12
				c3.37-2.87,5.41-4.6,6.71-3.37c1.32,1.24-0.27,3.37-2.89,6.91c-2.47,3.32-6.19,8.33-4.6,9.92c0.25,0.25,0.53,0.37,0.89,0.37
				c0,0,0.01,0,0.01,0c2.44-0.02,6.99-4.69,11.39-9.21c6.04-6.2,12.3-12.62,17.35-12.37c3.4,0.17,4.3,4.36,5.17,8.42
				c0.55,2.55,1.17,5.44,2.34,6.15c0.19,0.12,0.52,0.26,1.13,0.09c3.35-0.91,5.36-19.51,5.71-32.41l0.01-0.34l0.22-0.26
				c7.82-9.31,19.79-14.44,33.71-14.44v1.93c-13.21,0-24.57,4.79-32.02,13.5c-0.05,1.61-0.32,8.69-1.12,15.83
				c-1.7,15.18-4.24,17.57-6,18.05c-0.98,0.27-1.87,0.17-2.64-0.3c-1.88-1.14-2.53-4.18-3.22-7.4c-0.72-3.34-1.46-6.8-3.38-6.9
				c-4.18-0.19-10.4,6.17-15.88,11.79c-5.1,5.24-9.51,9.77-12.76,9.79C168.59,273.14,168.58,273.14,168.57,273.14z"/>
		</g>
		<g>
			<path d="M245.49,301.82c13.24,0,25.08-5.33,32.97-14.74c0,0,0.87-31.8,6.42-33.32c5.81-1.59,3.44,14.36,8.94,14.63
				c9.32,0.46,25.2-26.01,30.28-20.93c3.66,3.66-9.23,15.19-7.51,16.81c1.68,1.57,12.39-11.93,15.85-8.47s-9.55,14.43-7.72,16.26
				c1.83,1.83,12.97-11.01,16.66-7.32c3.05,3.05-9.35,14.22-7.92,15.65c2.03,2.03,12.92-11.18,15.95-7.62
				c3.16,3.71-22.35,35.93-30.15,45.51c-17.48,21.48-43.91,36.75-73.76,36.75"/>
			<path class="st2" d="M245.49,356v-1.93c27.57,0,54.19-13.27,73.01-36.4c2.52-3.1,11.34-14.03,18.95-24.64
				c12.2-16.99,11.35-19.43,11.21-19.65c-1.09-1.28-5.57,2.23-8.24,4.33c-3.58,2.81-6.16,4.85-7.66,3.35
				c-1.18-1.18,0.33-3.11,3.06-6.63c2.12-2.73,6.07-7.81,4.86-9.02c-1.58-1.58-6.38,2-9.56,4.37c-3.47,2.59-5.76,4.29-7.11,2.95
				c-1.37-1.37,0.43-3.69,3.17-7.2c2.37-3.05,5.95-7.65,4.56-9.05c-1.42-1.42-6.23,2.68-9.11,5.12c-3.37,2.87-5.41,4.6-6.71,3.37
				c-1.32-1.24,0.27-3.37,2.89-6.91c2.47-3.32,6.19-8.33,4.6-9.92c-0.26-0.26-0.55-0.39-0.9-0.37c-2.44,0.02-6.99,4.69-11.39,9.21
				c-5.93,6.09-12.05,12.38-17.06,12.38c-0.1,0-0.19,0-0.29-0.01c-3.4-0.17-4.3-4.36-5.17-8.42c-0.55-2.55-1.17-5.44-2.34-6.15
				c-0.19-0.12-0.52-0.26-1.13-0.09c-3.04,0.83-5.29,17.13-5.71,32.41l-0.01,0.34l-0.22,0.26c-8.05,9.58-20.33,15.08-33.71,15.08
				v-1.93c12.88,0,24.23-5.02,32.02-14.14c0.05-1.61,0.32-8.69,1.12-15.83c1.7-15.18,4.24-17.57,6-18.05
				c0.98-0.27,1.87-0.17,2.64,0.3c1.88,1.14,2.53,4.18,3.22,7.4c0.72,3.34,1.46,6.8,3.38,6.9c4.17,0.21,10.4-6.17,15.88-11.79
				c5.1-5.24,9.51-9.77,12.76-9.79c0.01,0,0.02,0,0.02,0c0.88,0,1.64,0.31,2.25,0.93c2.77,2.77-1.05,7.9-4.41,12.43
				c-0.94,1.26-2.13,2.86-2.68,3.86c0.97-0.62,2.5-1.92,3.7-2.95c4.24-3.61,9.04-7.7,11.72-5.02c2.6,2.6-1.12,7.38-4.4,11.6
				c-1.17,1.51-2.71,3.49-3.12,4.46c0.96-0.38,2.91-1.83,4.39-2.93c4.36-3.25,9.31-6.94,12.07-4.18c2.41,2.41-1.37,7.27-4.71,11.56
				c-1,1.28-2.29,2.95-2.82,3.89c1.1-0.47,3.21-2.14,4.7-3.31c4.23-3.33,8.6-6.77,10.9-4.06c0.82,0.96,2.52,2.97-10.92,21.74
				c-7.68,10.73-16.65,21.85-19.22,25.01C300.8,342.47,273.65,356,245.49,356z"/>
		</g>
		<g>
			<path d="M398.85,257.36h-6.8v-8.97h6.8V235.3h11.13v13.09h14.22v8.97h-14.22v23.19c0,4.74,1.75,7.21,6.6,7.21
				c2.47,0,4.64-0.52,7.01-1.24l1.34,9.9c-3.61,1.13-6.08,1.75-10.92,1.75c-10.62,0-15.15-7.01-15.15-16.08V257.36z"/>
			<path d="M435.23,296.83v-48.44h10.51v14.53l0.93,0.1c2.78-11.75,7.32-15.15,14.33-15.15h1.75v12.47h-2.68
				c-10.2,0-13.81,3.61-13.81,13.5v22.99H435.23z"/>
			<path d="M502.33,285.29h-1.13c-2.47,7.83-8.04,12.57-16.59,12.57c-8.66,0-14.74-4.12-14.74-13.61c0-8.66,5.26-14.95,17.52-14.95
				h14.43v-3.3c0-6.29-2.58-9.9-9.38-9.9c-5.67,0-8.97,2.89-10.2,8.56l-10.51-2.37c1.86-9.17,8.76-15.05,21.13-15.05
				c14.02,0,20,6.6,20,18.66v30.92h-10.51V285.29z M501.82,278.59v-1.96h-12.57c-5.57,0-8.76,2.06-8.76,6.08
				c0,3.5,2.16,6.49,8.45,6.49C496.67,289.21,501.82,284.67,501.82,278.59z"/>
			<path d="M559.03,284.05h-0.72c-2.47,8.35-8.24,14.12-16.9,14.12c-11.13,0-17.63-8.97-17.63-25.36c0-16.59,6.6-25.77,17.93-25.66
				c8.76-0.1,14.12,5.46,16.59,13.91h0.72v-30.41h11.03v66.17h-11.03V284.05z M559.03,274.78v-3.71c0-8.35-4.84-13.91-12.37-13.91
				c-8.04,0-11.96,5.05-11.96,15.67c0,10.41,3.71,15.46,11.96,15.46C554.08,288.28,559.03,283.02,559.03,274.78z"/>
			<path d="M581.29,273.23c0-16.39,9.28-26.08,24.43-26.08c14.64,0,21.75,8.86,21.75,22.16c0,1.86,0,4.02-0.21,6.49h-34.94
				c0.83,8.76,5.26,13.19,13.5,13.19c7.73,0,10.41-3.71,11.75-8.35l9.48,2.68c-2.27,8.76-8.35,14.74-21.34,14.74
				C590.88,298.07,581.29,289.41,581.29,273.23z M592.42,268.39h24.84c-0.41-8.35-4.12-12.68-11.85-12.68
				C597.89,255.71,593.45,259.73,592.42,268.39z"/>
			<path d="M701.68,297.04c-2.37,0.41-4.64,0.52-6.6,0.52c-7.32,0-14.43-2.47-20.82-6.39c-4.23,4.22-11.34,6.7-19.38,6.7
				c-11.44,0-19.48-5.57-19.48-16.59c0-9.48,6.08-14.53,14.74-17.93c-1.96-4.43-3.09-8.76-3.09-12.37
				c0-12.06,8.97-17.21,18.76-17.21c12.16,0,17.32,5.77,17.32,13.6c0,11.44-11.85,15.15-21.44,17.21
				c3.71,6.29,9.38,12.26,16.18,16.49c5.98-7.01,9.38-14.74,10.82-23.09l10,1.34c-1.65,10.2-7.01,18.45-15.15,24.74
				c3.92,1.65,8.04,2.58,12.26,2.58c1.34,0,3.61,0,5.46-0.1L701.68,297.04z M668.49,287.04c-7.01-5.67-12.78-12.99-16.59-20.1
				c-4.54,2.78-6.49,6.9-6.49,11.85c0,6.18,4.12,10.51,12.68,10.51C662.41,289.31,665.61,288.49,668.49,287.04z M659.52,260.35
				c9.07-2.78,13.71-6.39,13.71-11.96c0-3.92-2.16-6.49-7.22-6.49c-5.46,0-8.66,3.3-8.66,9.07
				C657.36,253.85,658.18,257.05,659.52,260.35z"/>
			<path d="M730.85,314.56c-18.35,0-23.71-3.92-23.71-10.1c0-4.23,4.54-7.32,11.13-8.76v-0.41c-4.33-0.82-6.6-3.09-6.6-6.49
				c0-2.58,2.06-4.84,5.46-6.49l3.71-2.06c-7.21-2.37-11.03-7.63-11.03-14.95c0-10.93,7.94-16.9,21.34-16.9h24.02v8.55h-5.57
				c-2.58,0-5.67-0.21-9.79-0.52l-0.1,0.93c6.39,1.24,11.75,3.92,11.75,10.31c0,8.66-7.32,13.91-20.82,13.91
				c-3.09,0-5.77-0.31-8.14-0.93l-1.13,1.75c-0.72,1.24-1.24,2.06-1.24,3.09c0,1.96,1.55,2.68,4.74,2.68c5.46,0,11.03-0.1,16.29-0.1
				c10.2,0,15.15,4.43,15.15,11.96C756.31,309.82,750.02,314.56,730.85,314.56z M747.45,300.34c0-2.78-1.96-4.74-6.7-4.74h-17.01
				c-5.26,0-7.94,2.68-7.94,5.36c0,3.92,3.09,5.57,15.67,5.57C744.46,306.52,747.45,304.46,747.45,300.34z M719.83,265.5
				c0,5.15,2.89,8.45,10.92,8.45s11.23-3.3,11.23-8.45s-3.71-8.45-11.34-8.45C722.92,257.05,719.83,260.45,719.83,265.5z"/>
			<path d="M795.58,285.29h-1.13c-2.47,7.83-8.04,12.57-16.59,12.57c-8.66,0-14.74-4.12-14.74-13.61c0-8.66,5.26-14.95,17.52-14.95
				h14.43v-3.3c0-6.29-2.58-9.9-9.38-9.9c-5.67,0-8.97,2.89-10.2,8.56l-10.51-2.37c1.86-9.17,8.76-15.05,21.13-15.05
				c14.02,0,20,6.6,20,18.66v30.92h-10.51V285.29z M795.07,278.59v-1.96H782.5c-5.57,0-8.76,2.06-8.76,6.08
				c0,3.5,2.16,6.49,8.45,6.49C789.92,289.21,795.07,284.67,795.07,278.59z"/>
			<path d="M820.02,240.15v-8.97h12.06v8.97H820.02z M820.43,296.83v-48.44h11.13v48.44H820.43z"/>
			<path d="M857.33,296.83H846.3v-48.44h10.82v12.78h0.93c2.68-8.97,8.86-14.02,17.01-14.02c10.1,0,14.95,6.8,14.95,17.31v32.37
				h-11.03v-29.48c0-5.88-2.58-10.2-9.28-10.2c-7.42,0-12.37,4.95-12.37,12.26V296.83z"/>
		</g>
	</g>
</g>
<g id="Layer_2">
	<g>
		<g>
			<path d="M1052.59,337.79c-27.74-34.08-69.68-56.28-117.03-56.28c-82.74,0-149.82,67.07-149.82,149.82l81.53-0.16
				c0-37.71,30.57-68.28,68.28-68.28c21,0,39.79,9.48,52.32,24.4c0,0,1.38,50.46,10.19,52.87c9.22,2.52,5.46-22.78,14.19-23.21
				c14.79-0.73,39.98,41.27,48.04,33.21c5.8-5.8-14.65-24.1-11.92-26.66c2.66-2.5,19.66,18.93,25.14,13.45
				c5.48-5.48-15.15-22.89-12.25-25.79c2.9-2.9,20.57,17.47,26.44,11.61c4.84-4.84-14.83-22.57-12.57-24.83
				c3.22-3.22,20.51,17.74,25.31,12.09C1105.45,404.11,1064.97,352.99,1052.59,337.79z"/>
			<path class="st2" d="M1057.8,451.68c1.11,0,2.07-0.4,2.86-1.18c3.77-3.77-2.26-11.88-7.1-18.4c-2.36-3.18-5.6-7.54-4.83-8.26
				c0.74-0.7,4.9,2.83,7.94,5.42c6.39,5.44,13.63,11.6,17.22,8.02c3.49-3.49-2.11-10.7-7.06-17.05c-2.72-3.49-6.09-7.83-5.19-8.74
				c0.89-0.89,5.17,2.31,8.61,4.87c6.59,4.92,14.07,10.49,17.82,6.73c3.19-3.19-2.52-10.53-7.55-17c-2.24-2.88-5.62-7.23-5.03-7.83
				c1.09-1.09,5.53,2.39,9.45,5.47c6.04,4.75,12.88,10.13,15.89,6.59c5.58-6.56-38.87-61.85-47.84-72.87l-0.4,0.32l0.4-0.32
				C1023.78,301.58,980.98,281,935.56,281c-82.89,0-150.33,67.44-150.33,150.33v0.51l82.55-0.16v-0.51
				c0-37.37,30.4-67.77,67.77-67.77c20.02,0,38.89,8.78,51.81,24.08c0.11,3.82,1.67,50.74,10.56,53.16
				c1.28,0.35,2.42,0.22,3.39-0.37c2.61-1.59,3.59-6.2,4.64-11.08c1.22-5.68,2.48-11.56,6.31-11.75
				c7.13-0.36,17.13,9.94,25.97,19.01c7.94,8.15,14.79,15.19,19.52,15.22C1057.78,451.68,1057.79,451.68,1057.8,451.68z
				 M1048.94,422.75c-0.36,0-0.66,0.11-0.91,0.35c-1.37,1.28,0.67,4.18,4.71,9.61c4.37,5.87,10.35,13.92,7.2,17.07
				c-0.59,0.59-1.29,0.88-2.13,0.88c-0.01,0-0.02,0-0.02,0c-4.3-0.03-11.34-7.26-18.8-14.92c-9.43-9.68-19.16-19.7-26.75-19.32
				c-4.62,0.23-5.96,6.49-7.26,12.55c-0.95,4.45-1.94,9.06-4.17,10.42c-0.74,0.45-1.58,0.53-2.59,0.26
				c-6.93-1.89-9.43-38.46-9.81-52.39l0-0.18l-0.11-0.14c-13.12-15.62-32.33-24.58-52.71-24.58c-37.76,0-68.52,30.58-68.79,68.28
				l-80.51,0.16c0.28-82.09,67.15-148.8,149.3-148.8c45.11,0,87.63,20.44,116.64,56.09c25.61,31.46,51.5,67.27,47.85,71.56
				c-2.38,2.8-9.09-2.48-14.48-6.73c-5.06-3.98-9.06-7.13-10.8-5.39c-1.18,1.18,0.88,3.96,4.94,9.17c4.3,5.53,10.19,13.1,7.63,15.65
				c-3.13,3.13-10.54-2.39-16.49-6.83c-4.9-3.65-8.44-6.29-9.94-4.78c-1.54,1.54,1.25,5.12,5.11,10.09
				c4.45,5.73,10,12.85,7.15,15.71c-2.92,2.92-10.38-3.43-15.84-8.07C1053.11,424.91,1050.49,422.75,1048.94,422.75z"/>
		</g>
		<g>
			<path d="M832.37,709.39c27.74,34.08,69.68,56.28,117.03,56.28c82.74,0,149.82-67.07,149.82-149.82l-81.53,0.16
				c0,37.71-30.57,68.28-68.28,68.28c-21,0-39.79-9.48-52.32-24.4c0,0-1.38-50.46-10.19-52.87c-9.22-2.52-5.46,22.78-14.19,23.21
				c-14.79,0.73-39.98-41.27-48.04-33.21c-5.8,5.8,14.65,24.1,11.92,26.66c-2.66,2.5-19.66-18.93-25.14-13.45
				s15.15,22.89,12.25,25.79s-20.57-17.47-26.44-11.61c-4.84,4.84,14.83,22.57,12.57,24.83c-3.22,3.22-20.51-17.74-25.31-12.09
				C779.52,643.06,819.99,694.19,832.37,709.39z"/>
			<path class="st2" d="M827.16,595.49c-1.11,0-2.07,0.4-2.86,1.18c-3.77,3.77,2.26,11.88,7.1,18.4c2.36,3.18,5.6,7.54,4.83,8.26
				c-0.74,0.7-4.9-2.83-7.94-5.42c-6.39-5.44-13.63-11.6-17.22-8.02c-3.49,3.49,2.11,10.7,7.06,17.05c2.72,3.49,6.09,7.83,5.19,8.74
				c-0.89,0.89-5.17-2.31-8.62-4.87c-6.59-4.92-14.07-10.49-17.82-6.73c-3.19,3.19,2.52,10.53,7.55,17
				c2.24,2.88,5.62,7.23,5.03,7.83c-1.09,1.09-5.53-2.39-9.45-5.47c-6.04-4.75-12.88-10.13-15.89-6.59
				c-5.58,6.56,38.87,61.85,47.84,72.87l0.4-0.32l-0.4,0.32c29.21,35.88,72.01,56.46,117.43,56.46
				c82.89,0,150.33-67.44,150.33-150.33v-0.51l-82.55,0.16v0.51c0,37.37-30.4,67.77-67.77,67.77c-20.02,0-38.89-8.78-51.81-24.08
				c-0.11-3.82-1.67-50.74-10.56-53.16c-1.28-0.35-2.42-0.22-3.39,0.37c-2.61,1.59-3.59,6.2-4.64,11.08
				c-1.22,5.68-2.48,11.56-6.31,11.75c-7.13,0.36-17.13-9.94-25.97-19.01c-7.94-8.15-14.79-15.19-19.52-15.22
				C827.18,595.49,827.17,595.49,827.16,595.49z M836.03,624.42c0.36,0,0.66-0.11,0.91-0.35c1.37-1.28-0.67-4.18-4.71-9.61
				c-4.37-5.87-10.35-13.92-7.2-17.07c0.59-0.59,1.29-0.88,2.13-0.88c0.01,0,0.02,0,0.02,0c4.3,0.03,11.34,7.26,18.8,14.92
				c9.43,9.68,19.16,19.7,26.75,19.32c4.62-0.23,5.96-6.49,7.26-12.55c0.95-4.45,1.94-9.06,4.17-10.42
				c0.74-0.45,1.58-0.53,2.59-0.26c6.93,1.89,9.43,38.46,9.81,52.39l0,0.18l0.11,0.14c13.12,15.62,32.33,24.58,52.71,24.58
				c37.76,0,68.52-30.58,68.79-68.28l80.51-0.16c-0.28,82.09-67.15,148.8-149.3,148.8c-45.11,0-87.63-20.44-116.64-56.09
				c-25.61-31.46-51.5-67.27-47.85-71.56c2.38-2.8,9.09,2.48,14.48,6.73c5.06,3.98,9.06,7.13,10.8,5.39
				c1.18-1.18-0.88-3.96-4.94-9.17c-4.3-5.53-10.19-13.1-7.63-15.65c3.13-3.13,10.54,2.39,16.49,6.83c4.9,3.65,8.44,6.29,9.94,4.78
				c1.54-1.54-1.25-5.12-5.11-10.09c-4.45-5.73-10-12.85-7.15-15.71c2.92-2.92,10.38,3.43,15.84,8.07
				C831.85,622.27,834.47,624.42,836.03,624.42z"/>
		</g>
		<g>
			<path d="M531.8,499.66h-10.75v-14.17h10.75V464.8h17.59v20.69h22.48v14.17h-22.48v36.65c0,7.49,2.77,11.4,10.42,11.4
				c3.91,0,7.33-0.82,11.08-1.96l2.12,15.64c-5.7,1.79-9.61,2.77-17.27,2.77c-16.78,0-23.94-11.08-23.94-25.41V499.66z"/>
			<path d="M589.3,562.04v-76.56h16.61v22.97l1.47,0.16c4.4-18.57,11.56-23.94,22.64-23.94h2.77v19.71h-4.24
				c-16.13,0-21.83,5.7-21.83,21.34v36.33H589.3z"/>
			<path d="M695.34,543.8h-1.79c-3.91,12.38-12.7,19.87-26.22,19.87c-13.68,0-23.29-6.51-23.29-21.5c0-13.68,8.31-23.62,27.69-23.62
				h22.81v-5.21c0-9.94-4.07-15.64-14.82-15.64c-8.96,0-14.17,4.56-16.12,13.52l-16.62-3.75c2.93-14.5,13.85-23.78,33.39-23.78
				c22.15,0,31.6,10.42,31.6,29.48v48.87h-16.61V543.8z M694.53,533.21v-3.09h-19.87c-8.8,0-13.85,3.26-13.85,9.61
				c0,5.54,3.42,10.26,13.36,10.26C686.38,549.99,694.53,542.82,694.53,533.21z"/>
			<path d="M784.94,541.85h-1.14c-3.91,13.19-13.03,22.32-26.71,22.32c-17.59,0-27.85-14.17-27.85-40.07
				c0-26.22,10.42-40.72,28.34-40.56c13.85-0.16,22.32,8.63,26.22,21.99h1.14v-48.05h17.43v104.58h-17.43V541.85z M784.94,527.19
				v-5.87c0-13.19-7.66-21.99-19.55-21.99c-12.7,0-18.89,7.98-18.89,24.76c0,16.46,5.86,24.43,18.89,24.43
				C777.12,548.52,784.94,540.22,784.94,527.19z"/>
			<path d="M820.12,524.74c0-25.9,14.66-41.21,38.6-41.21c23.13,0,34.37,14.01,34.37,35.02c0,2.93,0,6.35-0.33,10.26h-55.22
				c1.3,13.85,8.31,20.85,21.34,20.85c12.22,0,16.45-5.86,18.57-13.19l14.99,4.24c-3.58,13.85-13.19,23.29-33.72,23.29
				C835.27,564,820.12,550.31,820.12,524.74z M837.72,517.09h39.26c-0.65-13.19-6.51-20.04-18.73-20.04
				C846.35,497.05,839.34,503.4,837.72,517.09z"/>
			<path d="M1010.38,562.37c-3.75,0.65-7.33,0.82-10.42,0.82c-11.56,0-22.8-3.91-32.9-10.1c-6.68,6.68-17.92,10.59-30.62,10.59
				c-18.08,0-30.78-8.8-30.78-26.23c0-14.98,9.61-22.97,23.29-28.34c-3.09-7-4.89-13.85-4.89-19.55c0-19.06,14.17-27.2,29.64-27.2
				c19.22,0,27.37,9.12,27.37,21.5c0,18.08-18.73,23.95-33.88,27.2c5.86,9.94,14.82,19.38,25.58,26.06
				c9.45-11.08,14.82-23.29,17.1-36.49l15.8,2.12c-2.61,16.13-11.08,29.16-23.94,39.09c6.19,2.6,12.7,4.07,19.38,4.07
				c2.12,0,5.7,0,8.63-0.16L1010.38,562.37z M957.93,546.57c-11.08-8.96-20.2-20.52-26.22-31.76c-7.17,4.4-10.26,10.91-10.26,18.73
				c0,9.77,6.51,16.61,20.04,16.61C948.32,550.15,953.37,548.85,957.93,546.57z M943.76,504.38c14.33-4.4,21.67-10.1,21.67-18.9
				c0-6.19-3.42-10.26-11.4-10.26c-8.63,0-13.68,5.21-13.68,14.33C940.34,494.12,941.64,499.17,943.76,504.38z"/>
			<path d="M1056.49,590.06c-28.99,0-37.46-6.19-37.46-15.96c0-6.68,7.17-11.57,17.59-13.85v-0.65c-6.84-1.3-10.42-4.89-10.42-10.26
				c0-4.07,3.26-7.66,8.63-10.26l5.86-3.26c-11.4-3.75-17.43-12.05-17.43-23.62c0-17.27,12.54-26.71,33.72-26.71h37.95v13.52h-8.8
				c-4.07,0-8.96-0.33-15.47-0.82l-0.16,1.47c10.1,1.96,18.57,6.19,18.57,16.29c0,13.68-11.57,21.99-32.91,21.99
				c-4.88,0-9.12-0.49-12.87-1.47l-1.79,2.77c-1.14,1.96-1.96,3.26-1.96,4.89c0,3.09,2.44,4.24,7.49,4.24
				c8.63,0,17.43-0.16,25.74-0.16c16.12,0,23.94,7,23.94,18.89C1096.72,582.57,1086.79,590.06,1056.49,590.06z M1082.71,567.58
				c0-4.4-3.09-7.49-10.59-7.49h-26.88c-8.31,0-12.54,4.24-12.54,8.47c0,6.19,4.89,8.8,24.76,8.8
				C1077.99,577.36,1082.71,574.1,1082.71,567.58z M1039.06,512.52c0,8.14,4.56,13.36,17.27,13.36c12.7,0,17.76-5.21,17.76-13.36
				c0-8.14-5.86-13.36-17.92-13.36C1043.95,499.17,1039.06,504.54,1039.06,512.52z"/>
			<path d="M1158.79,543.8H1157c-3.91,12.38-12.7,19.87-26.22,19.87c-13.68,0-23.29-6.51-23.29-21.5c0-13.68,8.31-23.62,27.69-23.62
				h22.81v-5.21c0-9.94-4.07-15.64-14.82-15.64c-8.96,0-14.17,4.56-16.12,13.52l-16.62-3.75c2.93-14.5,13.85-23.78,33.39-23.78
				c22.15,0,31.6,10.42,31.6,29.48v48.87h-16.61V543.8z M1157.97,533.21v-3.09h-19.87c-8.8,0-13.85,3.26-13.85,9.61
				c0,5.54,3.42,10.26,13.36,10.26C1149.83,549.99,1157.97,542.82,1157.97,533.21z"/>
			<path d="M1197.4,472.45v-14.17h19.06v14.17H1197.4z M1198.05,562.04v-76.56h17.59v76.56H1198.05z"/>
			<path d="M1256.37,562.04h-17.43v-76.56h17.1v20.2h1.46c4.24-14.17,14.01-22.15,26.88-22.15c15.96,0,23.62,10.75,23.62,27.36
				v51.15h-17.43v-46.59c0-9.29-4.07-16.13-14.66-16.13c-11.73,0-19.54,7.82-19.54,19.38V562.04z"/>
		</g>
	</g>
</g>
</svg>
