<?xml version="1.0" encoding="utf-8"?>
<!-- Generator: Adobe Illustrator 26.1.0, SVG Export Plug-In . SVG Version: 6.00 Build 0)  -->
<svg version="1.1" xmlns="http://www.w3.org/2000/svg" xmlns:xlink="http://www.w3.org/1999/xlink" x="0px" y="0px"
	 viewBox="0 0 1920 1080" style="enable-background:new 0 0 1920 1080;" xml:space="preserve">
<style type="text/css">
	.st0{display:none;}
	.st1{display:inline;}
	.st2{fill:#FFFFFF;}
	.st3{fill:#FF6D00;}
</style>
<g id="Layer_1" class="st0">
	<g class="st1">
		<path d="M346.75,933.81c0,52.15-42.27,94.42-94.42,94.42s-94.42-42.27-94.42-94.42s42.27-94.42,94.42-94.42
			S346.75,881.66,346.75,933.81z M252.32,890.77c-23.77,0-43.04,19.27-43.04,43.04s19.27,43.04,43.04,43.04s43.04-19.27,43.04-43.04
			S276.09,890.77,252.32,890.77z"/>
	</g>
	<g class="st1">
		<path d="M252.13,891.96c-13.24,0-25.08,4.69-32.97,14.09c0,0-0.87,31.8-6.42,33.32c-5.81,1.59-3.44-14.36-8.94-14.63
			c-9.32-0.46-25.2,26.01-30.28,20.93c-3.66-3.66,9.23-15.19,7.51-16.81c-1.68-1.57-12.39,11.93-15.85,8.47
			c-3.45-3.45,9.55-14.43,7.72-16.26c-1.83-1.83-12.97,11.01-16.66,7.32c-3.05-3.05,9.35-14.22,7.92-15.65
			c-2.03-2.03-12.92,11.18-15.95,7.62c-3.16-3.71,22.35-35.93,30.15-45.51c17.48-21.48,43.91-36.75,73.76-36.75"/>
		<path class="st2" d="M175.09,947.28c-0.88,0-1.64-0.31-2.25-0.93c-2.77-2.77,1.05-7.9,4.41-12.43c0.94-1.26,2.13-2.86,2.68-3.86
			c-0.97,0.62-2.5,1.92-3.7,2.95c-4.24,3.61-9.04,7.7-11.72,5.02c-2.6-2.6,1.12-7.38,4.4-11.6c1.17-1.51,2.71-3.49,3.12-4.46
			c-0.96,0.38-2.91,1.83-4.39,2.94c-4.37,3.25-9.31,6.94-12.07,4.18c-2.41-2.41,1.37-7.27,4.71-11.56c1-1.28,2.29-2.95,2.82-3.89
			c-1.1,0.47-3.21,2.14-4.7,3.31c-4.23,3.33-8.6,6.77-10.9,4.06c-0.82-0.96-2.52-2.97,10.92-21.74
			c7.69-10.74,16.66-21.85,19.22-25.01c19.19-23.58,46.35-37.11,74.51-37.11v1.93c-27.57,0-54.19,13.27-73.01,36.4
			c-2.52,3.1-11.33,14.02-18.95,24.64c-12.2,16.99-11.35,19.43-11.21,19.65c1.09,1.28,5.57-2.23,8.24-4.33
			c3.58-2.81,6.16-4.85,7.66-3.35c1.18,1.18-0.33,3.11-3.06,6.63c-2.12,2.73-6.07,7.81-4.86,9.02c1.58,1.58,6.38-2,9.56-4.36
			c3.47-2.59,5.76-4.3,7.11-2.95c1.37,1.37-0.43,3.69-3.17,7.2c-2.37,3.05-5.95,7.65-4.56,9.05c1.42,1.42,6.23-2.68,9.11-5.12
			c3.37-2.87,5.41-4.6,6.71-3.37c1.32,1.24-0.27,3.37-2.89,6.91c-2.47,3.32-6.19,8.33-4.6,9.92c0.25,0.25,0.53,0.37,0.89,0.37
			c0,0,0.01,0,0.01,0c2.44-0.02,6.99-4.69,11.39-9.21c6.04-6.2,12.3-12.62,17.35-12.37c3.4,0.17,4.3,4.36,5.17,8.42
			c0.55,2.55,1.17,5.44,2.34,6.15c0.19,0.12,0.52,0.26,1.13,0.09c3.35-0.91,5.36-19.51,5.71-32.41l0.01-0.34l0.22-0.26
			c7.82-9.31,19.79-14.44,33.71-14.44v1.93c-13.21,0-24.57,4.79-32.02,13.5c-0.05,1.61-0.32,8.69-1.12,15.83
			c-1.7,15.18-4.24,17.57-6,18.05c-0.98,0.27-1.87,0.17-2.64-0.3c-1.88-1.14-2.53-4.18-3.22-7.4c-0.72-3.34-1.46-6.8-3.38-6.9
			c-4.18-0.19-10.4,6.17-15.88,11.79c-5.1,5.24-9.51,9.77-12.76,9.79C175.1,947.28,175.09,947.28,175.09,947.28z"/>
	</g>
	<g class="st1">
		<path d="M252,975.96c13.24,0,25.08-5.33,32.97-14.74c0,0,0.87-31.8,6.42-33.32c5.81-1.59,3.44,14.36,8.94,14.63
			c9.32,0.46,25.2-26.01,30.28-20.93c3.66,3.66-9.23,15.19-7.51,16.81c1.68,1.57,12.39-11.93,15.85-8.47
			c3.45,3.45-9.55,14.43-7.72,16.26c1.83,1.83,12.97-11.01,16.66-7.32c3.05,3.05-9.35,14.22-7.92,15.65
			c2.03,2.03,12.92-11.18,15.95-7.62c3.16,3.71-22.35,35.93-30.15,45.51c-17.48,21.48-43.91,36.75-73.76,36.75"/>
		<path class="st2" d="M252,1030.14v-1.93c27.57,0,54.19-13.27,73.01-36.4c2.52-3.1,11.34-14.03,18.95-24.64
			c12.2-16.99,11.35-19.43,11.21-19.65c-1.09-1.28-5.57,2.23-8.24,4.33c-3.58,2.81-6.16,4.85-7.66,3.35
			c-1.18-1.18,0.33-3.11,3.06-6.63c2.12-2.73,6.07-7.81,4.86-9.02c-1.58-1.58-6.38,2-9.56,4.37c-3.47,2.59-5.76,4.29-7.11,2.95
			c-1.37-1.37,0.43-3.69,3.17-7.2c2.37-3.05,5.95-7.65,4.56-9.05c-1.42-1.42-6.23,2.68-9.11,5.12c-3.37,2.87-5.41,4.6-6.71,3.37
			c-1.32-1.24,0.27-3.37,2.89-6.91c2.47-3.32,6.19-8.33,4.6-9.92c-0.26-0.26-0.55-0.39-0.9-0.37c-2.44,0.02-6.99,4.69-11.39,9.21
			c-5.93,6.09-12.05,12.38-17.06,12.38c-0.1,0-0.19,0-0.29-0.01c-3.4-0.17-4.3-4.36-5.17-8.42c-0.55-2.55-1.17-5.44-2.34-6.15
			c-0.19-0.12-0.52-0.26-1.13-0.09c-3.04,0.83-5.29,17.13-5.71,32.41l-0.01,0.34l-0.22,0.26c-8.05,9.58-20.33,15.08-33.71,15.08V975
			c12.88,0,24.23-5.02,32.02-14.14c0.05-1.61,0.32-8.69,1.12-15.83c1.7-15.18,4.24-17.57,6-18.05c0.98-0.27,1.87-0.17,2.64,0.3
			c1.88,1.14,2.53,4.18,3.22,7.4c0.72,3.34,1.46,6.8,3.38,6.9c4.17,0.21,10.4-6.17,15.88-11.79c5.1-5.24,9.51-9.77,12.76-9.79
			c0.01,0,0.02,0,0.02,0c0.88,0,1.64,0.31,2.25,0.93c2.77,2.77-1.05,7.9-4.41,12.43c-0.94,1.26-2.13,2.86-2.68,3.86
			c0.97-0.62,2.5-1.92,3.7-2.95c4.24-3.61,9.04-7.7,11.72-5.02c2.6,2.6-1.12,7.38-4.4,11.6c-1.17,1.51-2.71,3.49-3.12,4.46
			c0.96-0.38,2.91-1.83,4.39-2.93c4.36-3.25,9.31-6.94,12.07-4.18c2.41,2.41-1.37,7.27-4.71,11.56c-1,1.28-2.29,2.95-2.82,3.89
			c1.1-0.47,3.21-2.14,4.7-3.31c4.23-3.33,8.6-6.77,10.9-4.06c0.82,0.96,2.52,2.97-10.92,21.74c-7.68,10.73-16.65,21.85-19.22,25.01
			C307.31,1016.61,280.16,1030.14,252,1030.14z"/>
	</g>
</g>
<g id="Layer_3">
	<g>
		<g>
			<path class="st3" d="M631.86,503.86c0,90.79-73.6,164.39-164.39,164.39s-164.39-73.6-164.39-164.39s73.6-164.39,164.39-164.39
				S631.86,413.07,631.86,503.86z M467.47,428.94c-41.38,0-74.93,33.55-74.93,74.93s33.55,74.93,74.93,74.93
				s74.93-33.55,74.93-74.93S508.85,428.94,467.47,428.94z"/>
		</g>
		<g>
			<path class="st3" d="M467.13,431c-23.05,0-43.66,8.17-57.41,24.54c0,0-1.52,55.37-11.18,58.01c-10.12,2.76-5.99-25-15.57-25.47
				c-16.22-0.8-43.87,45.28-52.71,36.44c-6.37-6.37,16.08-26.45,13.08-29.26c-2.92-2.74-21.57,20.77-27.59,14.75
				c-6.01-6.01,16.63-25.12,13.44-28.3s-22.58,19.17-29.01,12.74c-5.31-5.31,16.27-24.76,13.8-27.24
				c-3.54-3.54-22.5,19.46-27.77,13.27c-5.5-6.46,38.92-62.56,52.5-79.24c30.43-37.39,76.46-63.99,128.42-63.99"/>
			<path class="st2" d="M333,527.88c-1.66,0-3.15-0.62-4.32-1.78c-5.16-5.16,1.63-14.31,7.63-22.37c0.96-1.3,2.09-2.81,3.04-4.18
				c-1.32,1.05-2.77,2.28-4.01,3.34c-7.56,6.44-16.14,13.74-21.16,8.71c-4.88-4.88,1.76-13.41,7.61-20.93
				c1.49-1.91,3.33-4.28,4.46-6.04c-1.72,1.06-4.03,2.78-5.89,4.17c-7.78,5.8-16.6,12.38-21.74,7.23
				c-4.55-4.55,1.9-12.85,8.15-20.87c1.17-1.5,2.57-3.3,3.63-4.8c-1.88,1.24-4.29,3.13-6.12,4.57c-7.57,5.95-15.4,12.11-19.75,6.99
				c-1.64-1.92-4.68-5.5,18.98-38.54c13.39-18.71,29.02-38.07,33.49-43.56C370.5,358.62,417.94,335,467.13,335v4.47
				c-47.84,0-94.01,23.02-126.68,63.16c-4.27,5.25-19.23,23.79-32.36,42.02c-19.97,27.72-20.32,33.45-20.09,34.44
				c1.72,1.57,9.66-4.67,13.51-7.69c6.45-5.07,11.12-8.74,14.07-5.79c2.4,2.4-0.33,5.91-5.28,12.28
				c-2.81,3.61-10.27,13.21-8.52,14.96c2.41,2.41,10.86-3.89,15.91-7.65c6.27-4.68,10.42-7.77,13.1-5.08
				c2.74,2.74-0.53,6.93-5.47,13.28c-3.52,4.52-10.06,12.93-7.98,15.02c2.11,2.1,10.88-5.36,15.1-8.95c6.1-5.2,9.79-8.34,12.44-5.85
				c2.66,2.5-0.21,6.36-4.97,12.77c-3.67,4.93-10.49,14.11-8.06,16.54c0.34,0.34,0.71,0.47,1.17,0.47
				c4.02-0.03,12.21-8.44,19.43-15.86c10.4-10.68,21.15-21.72,30.11-21.72c0.18,0,0.35,0,0.52,0.01c6.36,0.31,8.04,8.17,9.52,15.1
				c0.88,4.12,1.98,9.24,3.81,10.35c0.27,0.16,0.69,0.32,1.53,0.1c0.47-0.13,4.66-2,7.58-28.08c1.56-13.92,1.95-27.69,1.95-27.83
				l0.02-0.78l0.5-0.6c13.72-16.34,34.71-25.34,59.12-25.34v4.47c-22.77,0-42.33,8.22-55.2,23.15c-0.11,3.15-0.59,15.23-1.95,27.41
				c-2.96,26.46-7.35,30.95-10.85,31.9c-1.86,0.51-3.56,0.31-5.04-0.59c-3.48-2.12-4.63-7.52-5.86-13.24
				c-1.15-5.36-2.45-11.43-5.37-11.57c-7.02-0.37-17.76,10.65-27.21,20.36c-8.97,9.22-16.72,17.17-22.61,17.21
				C333.03,527.88,333.01,527.88,333,527.88z M288.01,479.16C288.01,479.16,288.01,479.16,288.01,479.16L288.01,479.16z"/>
		</g>
		<g>
			<path class="st3" d="M466.91,577.26c23.05,0,43.66-9.29,57.41-25.66c0,0,1.52-55.37,11.18-58.01c10.12-2.76,5.99,25,15.57,25.47
				c16.22,0.8,43.87-45.28,52.71-36.44c6.37,6.37-16.08,26.45-13.08,29.26c2.92,2.74,21.57-20.77,27.59-14.75
				c6.01,6.01-16.63,25.12-13.44,28.3c3.18,3.18,22.58-19.17,29.01-12.74c5.31,5.31-16.27,24.76-13.8,27.24
				c3.54,3.54,22.5-19.46,27.77-13.27c5.5,6.46-38.92,62.56-52.5,79.24c-30.43,37.39-76.46,63.99-128.42,63.99"/>
			<path class="st2" d="M466.91,671.58v-3.35c48.01,0,94.34-23.1,127.12-63.37c4.39-5.39,19.74-24.42,33-42.89
				c21.23-29.58,19.76-33.83,19.52-34.21c-1.9-2.24-9.69,3.89-14.34,7.55c-6.23,4.9-10.72,8.43-13.33,5.83
				c-2.05-2.05,0.57-5.42,5.33-11.54c3.7-4.75,10.57-13.59,8.47-15.7c-2.75-2.75-11.11,3.48-16.64,7.6
				c-6.04,4.5-10.03,7.48-12.37,5.14c-2.39-2.39,0.75-6.43,5.51-12.54c4.13-5.31,10.37-13.32,7.93-15.76
				c-2.48-2.47-10.85,4.66-15.86,8.92c-5.87,5-9.41,8.01-11.69,5.87c-2.3-2.16,0.46-5.87,5.04-12.03c4.29-5.77,10.78-14.49,8-17.27
				c-0.45-0.44-0.96-0.66-1.57-0.64c-4.25,0.03-12.17,8.16-19.83,16.03c-10.52,10.8-21.37,22-30.21,21.54
				c-5.93-0.29-7.49-7.59-9-14.66c-0.95-4.44-2.03-9.47-4.07-10.71c-0.34-0.21-0.91-0.45-1.97-0.16c-5.3,1.44-9.22,29.83-9.95,56.44
				l-0.39,1.03c-14.01,16.69-35.4,26.26-58.69,26.26v-3.35c22.42,0,42.19-8.74,55.75-24.62c0.09-2.8,0.57-15.13,1.96-27.56
				c2.96-26.42,7.38-30.59,10.44-31.42c1.71-0.47,3.26-0.29,4.6,0.53c3.27,1.99,4.4,7.28,5.6,12.88c1.25,5.82,2.54,11.84,5.89,12.01
				c7.27,0.34,18.11-10.74,27.64-20.53c8.89-9.13,16.56-17.01,22.21-17.04c1.55,0.01,2.88,0.54,3.97,1.62
				c4.82,4.82-1.82,13.76-7.68,21.64c-1.63,2.19-3.71,4.99-4.66,6.73c1.69-1.08,4.35-3.35,6.44-5.13
				c7.38-6.28,15.74-13.4,20.41-8.74c4.53,4.53-1.94,12.85-7.66,20.19c-2.04,2.62-4.72,6.07-5.43,7.77
				c1.67-0.66,5.06-3.19,7.63-5.11c7.6-5.66,16.21-12.09,21.02-7.28c4.2,4.2-2.38,12.66-8.19,20.13c-1.74,2.24-3.99,5.13-4.9,6.77
				c1.91-0.82,5.6-3.72,8.18-5.75c7.36-5.79,14.97-11.78,18.98-7.07c1.43,1.68,4.4,5.17-19.01,37.85
				c-13.38,18.68-29,38.05-33.46,43.54C563.21,648.03,515.93,671.58,466.91,671.58z"/>
		</g>
		<g>
			<path class="st3" d="M738.53,499.16h-12.01v-15.84h12.01V460.2h19.66v23.12h25.12v15.84h-25.12v40.96
				c0,8.37,3.09,12.74,11.65,12.74c4.37,0,8.19-0.91,12.38-2.19l2.36,17.48c-6.37,2-10.74,3.09-19.3,3.09
				c-18.75,0-26.76-12.38-26.76-28.4V499.16z"/>
			<path class="st3" d="M802.79,568.88v-85.56h18.57v25.67l1.64,0.18c4.91-20.75,12.92-26.76,25.3-26.76h3.09v22.03h-4.73
				c-18.02,0-24.39,6.37-24.39,23.85v40.6H802.79z"/>
			<path class="st3" d="M921.3,548.49h-2c-4.37,13.83-14.2,22.21-29.31,22.21c-15.29,0-26.03-7.28-26.03-24.03
				c0-15.29,9.28-26.4,30.95-26.4h25.49v-5.82c0-11.11-4.55-17.48-16.57-17.48c-10.01,0-15.84,5.1-18.02,15.11l-18.57-4.19
				c3.28-16.2,15.48-26.58,37.32-26.58c24.76,0,35.32,11.65,35.32,32.95v54.61H921.3V548.49z M920.4,536.65v-3.46h-22.21
				c-9.83,0-15.47,3.64-15.47,10.74c0,6.19,3.82,11.47,14.93,11.47C911.29,555.41,920.4,547.4,920.4,536.65z"/>
			<path class="st3" d="M1021.43,546.31h-1.28c-4.37,14.75-14.56,24.94-29.85,24.94c-19.66,0-31.13-15.84-31.13-44.79
				c0-29.31,11.65-45.51,31.68-45.33c15.47-0.18,24.94,9.65,29.31,24.58h1.28v-53.7h19.48v116.87h-19.48V546.31z M1021.43,529.92
				v-6.56c0-14.75-8.56-24.57-21.85-24.57c-14.2,0-21.12,8.92-21.12,27.67c0,18.39,6.55,27.31,21.12,27.31
				C1012.7,553.77,1021.43,544.48,1021.43,529.92z"/>
			<path class="st3" d="M1060.76,527.19c0-28.94,16.38-46.06,43.14-46.06c25.85,0,38.41,15.66,38.41,39.14c0,3.28,0,7.1-0.36,11.47
				h-61.71c1.46,15.48,9.28,23.3,23.85,23.3c13.65,0,18.38-6.55,20.75-14.75l16.75,4.73c-4,15.47-14.75,26.03-37.68,26.03
				C1077.69,571.06,1060.76,555.77,1060.76,527.19z M1080.42,518.63h43.87c-0.73-14.75-7.28-22.39-20.93-22.39
				C1090.07,496.24,1082.24,503.34,1080.42,518.63z"/>
			<path class="st3" d="M1273.39,569.24c-4.19,0.73-8.19,0.91-11.65,0.91c-12.92,0-25.48-4.37-36.77-11.28
				c-7.46,7.46-20.02,11.83-34.22,11.83c-20.21,0-34.4-9.83-34.4-29.31c0-16.75,10.74-25.67,26.03-31.67
				c-3.46-7.83-5.46-15.47-5.46-21.85c0-21.3,15.84-30.4,33.13-30.4c21.48,0,30.59,10.19,30.59,24.03
				c0,20.21-20.93,26.76-37.87,30.4c6.55,11.11,16.57,21.66,28.58,29.13c10.56-12.38,16.56-26.03,19.11-40.78l17.66,2.37
				c-2.91,18.02-12.38,32.59-26.76,43.69c6.92,2.91,14.2,4.55,21.66,4.55c2.37,0,6.37,0,9.65-0.18L1273.39,569.24z M1214.77,551.58
				c-12.38-10.01-22.57-22.94-29.31-35.5c-8.01,4.91-11.47,12.2-11.47,20.93c0,10.92,7.28,18.57,22.39,18.57
				C1204.03,555.59,1209.67,554.13,1214.77,551.58z M1198.93,504.44c16.02-4.92,24.21-11.29,24.21-21.12
				c0-6.92-3.82-11.47-12.75-11.47c-9.65,0-15.29,5.83-15.29,16.02C1195.11,492.97,1196.57,498.61,1198.93,504.44z"/>
			<path class="st3" d="M1324.91,600.19c-32.4,0-41.87-6.92-41.87-17.84c0-7.46,8.01-12.93,19.66-15.48v-0.73
				c-7.65-1.46-11.65-5.46-11.65-11.47c0-4.55,3.64-8.56,9.65-11.47l6.55-3.64c-12.74-4.19-19.48-13.47-19.48-26.4
				c0-19.3,14.02-29.85,37.68-29.85h42.42v15.11h-9.83c-4.55,0-10.01-0.36-17.29-0.91l-0.18,1.64c11.29,2.19,20.75,6.92,20.75,18.2
				c0,15.29-12.93,24.58-36.77,24.58c-5.46,0-10.19-0.55-14.38-1.64l-2,3.09c-1.28,2.19-2.19,3.64-2.19,5.46
				c0,3.46,2.73,4.73,8.38,4.73c9.65,0,19.48-0.18,28.76-0.18c18.02,0,26.76,7.83,26.76,21.12
				C1369.88,591.81,1358.77,600.19,1324.91,600.19z M1354.22,575.07c0-4.92-3.46-8.38-11.83-8.38h-30.04
				c-9.28,0-14.02,4.73-14.02,9.47c0,6.92,5.46,9.83,27.67,9.83C1348.95,585.99,1354.22,582.35,1354.22,575.07z M1305.44,513.54
				c0,9.1,5.1,14.93,19.3,14.93c14.2,0,19.84-5.83,19.84-14.93c0-9.1-6.55-14.93-20.03-14.93
				C1310.9,498.61,1305.44,504.62,1305.44,513.54z"/>
			<path class="st3" d="M1439.24,548.49h-2c-4.37,13.83-14.2,22.21-29.31,22.21c-15.29,0-26.03-7.28-26.03-24.03
				c0-15.29,9.28-26.4,30.95-26.4h25.49v-5.82c0-11.11-4.55-17.48-16.57-17.48c-10.01,0-15.84,5.1-18.02,15.11l-18.57-4.19
				c3.28-16.2,15.48-26.58,37.32-26.58c24.76,0,35.32,11.65,35.32,32.95v54.61h-18.57V548.49z M1438.33,536.65v-3.46h-22.21
				c-9.83,0-15.47,3.64-15.47,10.74c0,6.19,3.82,11.47,14.93,11.47C1429.23,555.41,1438.33,547.4,1438.33,536.65z"/>
			<path class="st3" d="M1482.39,468.75v-15.84h21.3v15.84H1482.39z M1483.12,568.88v-85.56h19.66v85.56H1483.12z"/>
			<path class="st3" d="M1548.29,568.88h-19.48v-85.56h19.12v22.57h1.64c4.73-15.84,15.66-24.76,30.04-24.76
				c17.84,0,26.4,12.01,26.4,30.58v57.16h-19.48v-52.06c0-10.38-4.55-18.02-16.38-18.02c-13.11,0-21.84,8.74-21.84,21.66V568.88z"/>
		</g>
	</g>
</g>
<g id="Layer_4" class="st0">
	<g class="st1">
		<g>
			<path d="M647.31,487.41c0,89.23-72.33,161.56-161.56,161.56s-161.56-72.33-161.56-161.56s72.33-161.56,161.56-161.56
				S647.31,398.18,647.31,487.41z M485.75,413.77c-40.67,0-73.64,32.97-73.64,73.64s32.97,73.64,73.64,73.64
				s73.64-32.97,73.64-73.64S526.42,413.77,485.75,413.77z"/>
		</g>
		<g>
			<path d="M485.41,415.8c-22.65,0-42.91,8.03-56.42,24.12c0,0-1.49,54.42-10.99,57.01c-9.95,2.71-5.89-24.57-15.3-25.03
				c-15.94-0.78-43.11,44.5-51.81,35.81c-6.26-6.26,15.8-25.99,12.86-28.76c-2.87-2.69-21.2,20.41-27.11,14.5
				s16.34-24.69,13.21-27.82s-22.19,18.84-28.51,12.52c-5.22-5.22,15.99-24.34,13.56-26.77c-3.48-3.48-22.11,19.13-27.29,13.04
				c-5.4-6.35,38.25-61.48,51.59-77.88c29.91-36.75,75.14-62.89,126.21-62.89"/>
			<path class="st2" d="M353.59,510.46c-1.5,0-2.8-0.54-3.86-1.59c-4.74-4.74,1.79-13.52,7.55-21.27c1.6-2.15,3.64-4.9,4.58-6.61
				c-1.66,1.06-4.28,3.29-6.33,5.04c-7.25,6.17-15.47,13.17-20.06,8.59c-4.45-4.45,1.91-12.63,7.52-19.84
				c2-2.58,4.64-5.97,5.34-7.63c-1.64,0.65-4.97,3.13-7.51,5.02c-7.47,5.57-15.93,11.88-20.65,7.16
				c-4.13-4.13,2.34-12.45,8.05-19.79c1.71-2.2,3.92-5.04,4.82-6.65c-1.88,0.81-5.5,3.66-8.04,5.66
				c-7.24,5.69-14.72,11.58-18.65,6.95c-1.4-1.65-4.32-5.08,18.68-37.2c13.15-18.37,28.5-37.39,32.89-42.79
				C390.77,345.14,437.24,322,485.41,322v3.3c-47.18,0-92.72,22.7-124.93,62.28c-4.31,5.3-19.39,23.99-32.43,42.16
				c-20.87,29.08-19.41,33.24-19.18,33.62c1.87,2.2,9.52-3.82,14.1-7.42c6.12-4.81,10.54-8.29,13.1-5.73
				c2.02,2.02-0.56,5.33-5.24,11.34c-3.63,4.67-10.39,13.36-8.32,15.43c2.7,2.71,10.92-3.42,16.35-7.47
				c5.94-4.43,9.86-7.35,12.16-5.05c2.35,2.35-0.74,6.32-5.42,12.33c-4.06,5.22-10.19,13.1-7.8,15.49
				c2.44,2.43,10.67-4.58,15.59-8.77c5.77-4.91,9.25-7.87,11.49-5.77c2.26,2.12-0.46,5.77-4.95,11.82
				c-4.22,5.67-10.59,14.25-7.87,16.97c0.43,0.43,0.9,0.63,1.52,0.63c0.01,0,0.01,0,0.02,0c4.18-0.03,11.96-8.02,19.49-15.75
				c10.34-10.62,21.05-21.59,29.69-21.17c5.83,0.29,7.36,7.46,8.85,14.41c0.93,4.36,1.99,9.31,4,10.53c0.33,0.2,0.9,0.44,1.94,0.15
				c5.74-1.56,9.17-33.38,9.77-55.46l0.02-0.57l0.37-0.44c13.38-15.93,33.86-24.71,57.68-24.71v3.3c-22.61,0-42.04,8.2-54.79,23.09
				c-0.09,2.76-0.56,14.87-1.92,27.09c-2.91,25.97-7.25,30.06-10.26,30.88c-1.68,0.46-3.2,0.28-4.52-0.52
				c-3.22-1.96-4.33-7.15-5.51-12.66c-1.23-5.72-2.49-11.64-5.79-11.8c-7.15-0.33-17.79,10.55-27.16,20.17
				c-8.73,8.97-16.27,16.71-21.83,16.75C353.62,510.46,353.6,510.46,353.59,510.46z"/>
		</g>
		<g>
			<path d="M485.2,559.54c22.65,0,42.91-9.13,56.42-25.22c0,0,1.49-54.42,10.99-57.01c9.95-2.71,5.89,24.57,15.3,25.03
				c15.94,0.78,43.11-44.5,51.81-35.81c6.26,6.26-15.8,25.99-12.86,28.76c2.87,2.69,21.2-20.41,27.11-14.5s-16.34,24.69-13.21,27.82
				c3.13,3.13,22.19-18.84,28.51-12.52c5.22,5.22-15.99,24.34-13.56,26.77c3.48,3.48,22.11-19.13,27.29-13.04
				c5.4,6.35-38.25,61.48-51.59,77.88c-29.91,36.75-75.14,62.89-126.21,62.89"/>
			<path class="st2" d="M485.2,652.24v-3.3c47.18,0,92.72-22.7,124.93-62.28c4.31-5.3,19.4-24,32.43-42.16
				c20.87-29.08,19.41-33.24,19.18-33.62c-1.87-2.2-9.52,3.82-14.1,7.42c-6.12,4.81-10.54,8.29-13.1,5.73
				c-2.02-2.02,0.56-5.33,5.24-11.34c3.63-4.67,10.39-13.36,8.32-15.43c-2.71-2.71-10.92,3.42-16.35,7.47
				c-5.94,4.42-9.86,7.35-12.16,5.05c-2.35-2.35,0.74-6.32,5.42-12.33c4.06-5.21,10.19-13.1,7.8-15.49
				c-2.43-2.43-10.67,4.58-15.59,8.77c-5.77,4.91-9.25,7.87-11.49,5.77c-2.26-2.12,0.46-5.77,4.95-11.82
				c4.22-5.67,10.59-14.25,7.87-16.97c-0.44-0.44-0.94-0.67-1.54-0.63c-4.18,0.03-11.96,8.02-19.49,15.75
				c-10.14,10.42-20.62,21.18-29.2,21.18c-0.17,0-0.33,0-0.49-0.01c-5.83-0.29-7.36-7.46-8.85-14.41c-0.93-4.36-1.99-9.31-4-10.53
				c-0.33-0.2-0.89-0.44-1.94-0.15c-5.2,1.42-9.06,29.32-9.77,55.46l-0.02,0.57l-0.37,0.44c-13.77,16.4-34.79,25.8-57.68,25.8v-3.3
				c22.03,0,41.47-8.59,54.79-24.19c0.09-2.76,0.56-14.87,1.92-27.09c2.91-25.97,7.25-30.06,10.26-30.88
				c1.68-0.46,3.2-0.28,4.52,0.52c3.22,1.96,4.33,7.15,5.51,12.66c1.23,5.72,2.49,11.64,5.79,11.8c7.14,0.35,17.8-10.55,27.16-20.17
				c8.73-8.97,16.27-16.71,21.83-16.75c0.01,0,0.03,0,0.04,0c1.5,0,2.8,0.54,3.86,1.59c4.74,4.74-1.79,13.52-7.55,21.27
				c-1.6,2.15-3.64,4.9-4.58,6.61c1.66-1.06,4.28-3.29,6.33-5.04c7.25-6.17,15.47-13.17,20.06-8.59c4.45,4.45-1.91,12.63-7.52,19.84
				c-2,2.58-4.64,5.97-5.34,7.63c1.64-0.65,4.97-3.13,7.5-5.02c7.47-5.57,15.93-11.88,20.65-7.16c4.13,4.13-2.34,12.45-8.05,19.78
				c-1.71,2.2-3.92,5.04-4.82,6.65c1.88-0.81,5.5-3.66,8.04-5.66c7.24-5.69,14.72-11.58,18.65-6.95c1.4,1.65,4.32,5.08-18.68,37.2
				c-13.15,18.36-28.5,37.39-32.89,42.79C579.84,629.09,533.38,652.24,485.2,652.24z"/>
		</g>
		<g>
			<path d="M747.6,483.45h-11.64v-15.34h11.64v-22.4h19.05v22.4h24.34v15.34h-24.34v39.68c0,8.11,3,12.34,11.29,12.34
				c4.23,0,7.94-0.88,11.99-2.12l2.29,16.93c-6.17,1.94-10.4,3-18.69,3c-18.17,0-25.92-11.99-25.92-27.52V483.45z"/>
			<path d="M809.86,551v-82.89h17.99v24.87l1.59,0.17c4.76-20.11,12.52-25.92,24.51-25.92h3v21.34h-4.59
				c-17.46,0-23.63,6.17-23.63,23.1V551H809.86z"/>
			<path d="M924.68,531.25h-1.94c-4.23,13.4-13.75,21.52-28.39,21.52c-14.82,0-25.22-7.05-25.22-23.28
				c0-14.81,8.99-25.57,29.98-25.57h24.69v-5.64c0-10.76-4.41-16.93-16.05-16.93c-9.7,0-15.34,4.94-17.46,14.64l-17.99-4.06
				c3.18-15.7,14.99-25.75,36.15-25.75c23.99,0,34.21,11.29,34.21,31.92V551h-17.99V531.25z M923.8,519.78v-3.35h-21.52
				c-9.52,0-14.99,3.53-14.99,10.4c0,6,3.7,11.11,14.46,11.11C914.98,537.95,923.8,530.19,923.8,519.78z"/>
			<path d="M1021.68,529.13h-1.24c-4.23,14.29-14.11,24.16-28.92,24.16c-19.05,0-30.16-15.35-30.16-43.39
				c0-28.39,11.29-44.09,30.69-43.91c14.99-0.18,24.16,9.35,28.39,23.81h1.24v-52.03h18.87V551h-18.87V529.13z M1021.68,513.26
				v-6.35c0-14.29-8.29-23.81-21.16-23.81c-13.75,0-20.46,8.64-20.46,26.8c0,17.82,6.35,26.45,20.46,26.45
				C1013.22,536.36,1021.68,527.37,1021.68,513.26z"/>
			<path d="M1059.78,510.61c0-28.04,15.87-44.62,41.8-44.62c25.04,0,37.21,15.17,37.21,37.92c0,3.18,0,6.88-0.35,11.11h-59.79
				c1.41,14.99,8.99,22.57,23.1,22.57c13.23,0,17.81-6.35,20.1-14.29l16.23,4.59c-3.88,14.99-14.29,25.22-36.51,25.22
				C1076.18,553.11,1059.78,538.3,1059.78,510.61z M1078.82,502.32h42.5c-0.71-14.29-7.05-21.69-20.28-21.69
				C1088.17,480.63,1080.59,487.51,1078.82,502.32z"/>
			<path d="M1265.77,551.35c-4.06,0.71-7.94,0.88-11.29,0.88c-12.52,0-24.69-4.23-35.62-10.93c-7.23,7.23-19.4,11.46-33.16,11.46
				c-19.58,0-33.33-9.52-33.33-28.4c0-16.22,10.4-24.87,25.22-30.69c-3.35-7.58-5.29-14.99-5.29-21.16
				c0-20.63,15.34-29.45,32.1-29.45c20.81,0,29.63,9.88,29.63,23.28c0,19.58-20.28,25.93-36.68,29.45
				c6.35,10.76,16.05,20.99,27.69,28.22c10.23-11.99,16.05-25.22,18.52-39.5l17.11,2.29c-2.82,17.46-11.99,31.57-25.92,42.33
				c6.7,2.82,13.75,4.41,20.99,4.41c2.29,0,6.17,0,9.35-0.18L1265.77,551.35z M1208.98,534.24c-11.99-9.7-21.87-22.22-28.39-34.39
				c-7.76,4.76-11.11,11.81-11.11,20.28c0,10.58,7.05,17.99,21.69,17.99C1198.58,538.12,1204.04,536.71,1208.98,534.24z
				 M1193.64,488.57c15.52-4.76,23.46-10.94,23.46-20.46c0-6.7-3.7-11.11-12.35-11.11c-9.35,0-14.81,5.64-14.81,15.52
				C1189.94,477.46,1191.35,482.92,1193.64,488.57z"/>
			<path d="M1315.69,581.33c-31.39,0-40.56-6.7-40.56-17.28c0-7.23,7.76-12.52,19.05-14.99v-0.71c-7.41-1.41-11.29-5.29-11.29-11.11
				c0-4.41,3.53-8.29,9.35-11.11l6.35-3.53c-12.34-4.06-18.87-13.05-18.87-25.57c0-18.7,13.58-28.92,36.51-28.92h41.09v14.64h-9.52
				c-4.41,0-9.7-0.35-16.75-0.88l-0.18,1.59c10.93,2.12,20.11,6.7,20.11,17.64c0,14.82-12.52,23.81-35.63,23.81
				c-5.29,0-9.87-0.53-13.93-1.59l-1.94,3c-1.24,2.12-2.12,3.53-2.12,5.29c0,3.35,2.65,4.59,8.11,4.59c9.35,0,18.87-0.17,27.86-0.17
				c17.46,0,25.92,7.58,25.92,20.46C1359.25,573.22,1348.49,581.33,1315.69,581.33z M1344.08,557c0-4.76-3.35-8.11-11.46-8.11h-29.1
				c-8.99,0-13.58,4.59-13.58,9.17c0,6.7,5.29,9.52,26.81,9.52C1338.97,567.58,1344.08,564.05,1344.08,557z M1296.82,497.38
				c0,8.82,4.94,14.46,18.69,14.46c13.75,0,19.22-5.65,19.22-14.46s-6.35-14.46-19.4-14.46
				C1302.11,482.92,1296.82,488.74,1296.82,497.38z"/>
			<path d="M1426.45,531.25h-1.94c-4.23,13.4-13.75,21.52-28.39,21.52c-14.82,0-25.22-7.05-25.22-23.28
				c0-14.81,8.99-25.57,29.98-25.57h24.69v-5.64c0-10.76-4.41-16.93-16.05-16.93c-9.7,0-15.34,4.94-17.46,14.64l-17.99-4.06
				c3.18-15.7,14.99-25.75,36.15-25.75c23.99,0,34.21,11.29,34.21,31.92V551h-17.99V531.25z M1425.57,519.78v-3.35h-21.52
				c-9.52,0-14.99,3.53-14.99,10.4c0,6,3.7,11.11,14.46,11.11C1416.75,537.95,1425.57,530.19,1425.57,519.78z"/>
			<path d="M1468.25,454v-15.34h20.63V454H1468.25z M1468.96,551v-82.89H1488V551H1468.96z"/>
			<path d="M1532.1,551h-18.87v-82.89h18.52v21.87h1.59c4.59-15.35,15.17-23.99,29.1-23.99c17.28,0,25.57,11.64,25.57,29.63V551
				h-18.87v-50.44c0-10.05-4.41-17.46-15.87-17.46c-12.7,0-21.16,8.47-21.16,20.99V551z"/>
		</g>
	</g>
</g>
<g id="Layer_2" class="st0">
	<g class="st1">
		<g>
			<path d="M1052.59,337.79c-27.74-34.08-69.68-56.28-117.03-56.28c-82.74,0-149.82,67.07-149.82,149.82l81.53-0.16
				c0-37.71,30.57-68.28,68.28-68.28c21,0,39.79,9.48,52.32,24.4c0,0,1.38,50.46,10.19,52.87c9.22,2.52,5.46-22.78,14.19-23.21
				c14.79-0.73,39.98,41.27,48.04,33.21c5.8-5.8-14.65-24.1-11.92-26.66c2.66-2.5,19.66,18.93,25.14,13.45
				c5.48-5.48-15.15-22.89-12.25-25.79c2.9-2.9,20.57,17.47,26.44,11.61c4.84-4.84-14.83-22.57-12.57-24.83
				c3.22-3.22,20.51,17.74,25.31,12.09C1105.45,404.11,1064.97,352.99,1052.59,337.79z"/>
			<path class="st2" d="M1057.8,451.68c1.11,0,2.07-0.4,2.86-1.18c3.77-3.77-2.26-11.88-7.1-18.4c-2.36-3.18-5.6-7.54-4.83-8.26
				c0.74-0.7,4.9,2.83,7.94,5.42c6.39,5.44,13.63,11.6,17.22,8.02c3.49-3.49-2.11-10.7-7.06-17.05c-2.72-3.49-6.09-7.83-5.19-8.74
				c0.89-0.89,5.17,2.31,8.61,4.87c6.59,4.92,14.07,10.49,17.82,6.73c3.19-3.19-2.52-10.53-7.55-17c-2.24-2.88-5.62-7.23-5.03-7.83
				c1.09-1.09,5.53,2.39,9.45,5.47c6.04,4.75,12.88,10.13,15.89,6.59c5.58-6.56-38.87-61.85-47.84-72.87l-0.4,0.32l0.4-0.32
				C1023.78,301.58,980.98,281,935.56,281c-82.89,0-150.33,67.44-150.33,150.33v0.51l82.55-0.16v-0.51
				c0-37.37,30.4-67.77,67.77-67.77c20.02,0,38.89,8.78,51.81,24.08c0.11,3.82,1.67,50.74,10.56,53.16
				c1.28,0.35,2.42,0.22,3.39-0.37c2.61-1.59,3.59-6.2,4.64-11.08c1.22-5.68,2.48-11.56,6.31-11.75
				c7.13-0.36,17.13,9.94,25.97,19.01c7.94,8.15,14.79,15.19,19.52,15.22C1057.78,451.68,1057.79,451.68,1057.8,451.68z
				 M1048.94,422.75c-0.36,0-0.66,0.11-0.91,0.35c-1.37,1.28,0.67,4.18,4.71,9.61c4.37,5.87,10.35,13.92,7.2,17.07
				c-0.59,0.59-1.29,0.88-2.13,0.88c-0.01,0-0.02,0-0.02,0c-4.3-0.03-11.34-7.26-18.8-14.92c-9.43-9.68-19.16-19.7-26.75-19.32
				c-4.62,0.23-5.96,6.49-7.26,12.55c-0.95,4.45-1.94,9.06-4.17,10.42c-0.74,0.45-1.58,0.53-2.59,0.26
				c-6.93-1.89-9.43-38.46-9.81-52.39l0-0.18l-0.11-0.14c-13.12-15.62-32.33-24.58-52.71-24.58c-37.76,0-68.52,30.58-68.79,68.28
				l-80.51,0.16c0.28-82.09,67.15-148.8,149.3-148.8c45.11,0,87.63,20.44,116.64,56.09c25.61,31.46,51.5,67.27,47.85,71.56
				c-2.38,2.8-9.09-2.48-14.48-6.73c-5.06-3.98-9.06-7.13-10.8-5.39c-1.18,1.18,0.88,3.96,4.94,9.17c4.3,5.53,10.19,13.1,7.63,15.65
				c-3.13,3.13-10.54-2.39-16.49-6.83c-4.9-3.65-8.44-6.29-9.94-4.78c-1.54,1.54,1.25,5.12,5.11,10.09
				c4.45,5.73,10,12.85,7.15,15.71c-2.92,2.92-10.38-3.43-15.84-8.07C1053.11,424.91,1050.49,422.75,1048.94,422.75z"/>
		</g>
		<g>
			<path d="M832.37,709.39c27.74,34.08,69.68,56.28,117.03,56.28c82.74,0,149.82-67.07,149.82-149.82l-81.53,0.16
				c0,37.71-30.57,68.28-68.28,68.28c-21,0-39.79-9.48-52.32-24.4c0,0-1.38-50.46-10.19-52.87c-9.22-2.52-5.46,22.78-14.19,23.21
				c-14.79,0.73-39.98-41.27-48.04-33.21c-5.8,5.8,14.65,24.1,11.92,26.66c-2.66,2.5-19.66-18.93-25.14-13.45
				s15.15,22.89,12.25,25.79s-20.57-17.47-26.44-11.61c-4.84,4.84,14.83,22.57,12.57,24.83c-3.22,3.22-20.51-17.74-25.31-12.09
				C779.52,643.06,819.99,694.19,832.37,709.39z"/>
			<path class="st2" d="M827.16,595.49c-1.11,0-2.07,0.4-2.86,1.18c-3.77,3.77,2.26,11.88,7.1,18.4c2.36,3.18,5.6,7.54,4.83,8.26
				c-0.74,0.7-4.9-2.83-7.94-5.42c-6.39-5.44-13.63-11.6-17.22-8.02c-3.49,3.49,2.11,10.7,7.06,17.05c2.72,3.49,6.09,7.83,5.19,8.74
				c-0.89,0.89-5.17-2.31-8.62-4.87c-6.59-4.92-14.07-10.49-17.82-6.73c-3.19,3.19,2.52,10.53,7.55,17
				c2.24,2.88,5.62,7.23,5.03,7.83c-1.09,1.09-5.53-2.39-9.45-5.47c-6.04-4.75-12.88-10.13-15.89-6.59
				c-5.58,6.56,38.87,61.85,47.84,72.87l0.4-0.32l-0.4,0.32c29.21,35.88,72.01,56.46,117.43,56.46
				c82.89,0,150.33-67.44,150.33-150.33v-0.51l-82.55,0.16v0.51c0,37.37-30.4,67.77-67.77,67.77c-20.02,0-38.89-8.78-51.81-24.08
				c-0.11-3.82-1.67-50.74-10.56-53.16c-1.28-0.35-2.42-0.22-3.39,0.37c-2.61,1.59-3.59,6.2-4.64,11.08
				c-1.22,5.68-2.48,11.56-6.31,11.75c-7.13,0.36-17.13-9.94-25.97-19.01c-7.94-8.15-14.79-15.19-19.52-15.22
				C827.18,595.49,827.17,595.49,827.16,595.49z M836.03,624.42c0.36,0,0.66-0.11,0.91-0.35c1.37-1.28-0.67-4.18-4.71-9.61
				c-4.37-5.87-10.35-13.92-7.2-17.07c0.59-0.59,1.29-0.88,2.13-0.88c0.01,0,0.02,0,0.02,0c4.3,0.03,11.34,7.26,18.8,14.92
				c9.43,9.68,19.16,19.7,26.75,19.32c4.62-0.23,5.96-6.49,7.26-12.55c0.95-4.45,1.94-9.06,4.17-10.42
				c0.74-0.45,1.58-0.53,2.59-0.26c6.93,1.89,9.43,38.46,9.81,52.39l0,0.18l0.11,0.14c13.12,15.62,32.33,24.58,52.71,24.58
				c37.76,0,68.52-30.58,68.79-68.28l80.51-0.16c-0.28,82.09-67.15,148.8-149.3,148.8c-45.11,0-87.63-20.44-116.64-56.09
				c-25.61-31.46-51.5-67.27-47.85-71.56c2.38-2.8,9.09,2.48,14.48,6.73c5.06,3.98,9.06,7.13,10.8,5.39
				c1.18-1.18-0.88-3.96-4.94-9.17c-4.3-5.53-10.19-13.1-7.63-15.65c3.13-3.13,10.54,2.39,16.49,6.83c4.9,3.65,8.44,6.29,9.94,4.78
				c1.54-1.54-1.25-5.12-5.11-10.09c-4.45-5.73-10-12.85-7.15-15.71c2.92-2.92,10.38,3.43,15.84,8.07
				C831.85,622.27,834.47,624.42,836.03,624.42z"/>
		</g>
		<g>
			<path d="M531.8,499.66h-10.75v-14.17h10.75V464.8h17.59v20.69h22.48v14.17h-22.48v36.65c0,7.49,2.77,11.4,10.42,11.4
				c3.91,0,7.33-0.82,11.08-1.96l2.12,15.64c-5.7,1.79-9.61,2.77-17.27,2.77c-16.78,0-23.94-11.08-23.94-25.41V499.66z"/>
			<path d="M589.3,562.04v-76.56h16.61v22.97l1.47,0.16c4.4-18.57,11.56-23.94,22.64-23.94h2.77v19.71h-4.24
				c-16.13,0-21.83,5.7-21.83,21.34v36.33H589.3z"/>
			<path d="M695.34,543.8h-1.79c-3.91,12.38-12.7,19.87-26.22,19.87c-13.68,0-23.29-6.51-23.29-21.5c0-13.68,8.31-23.62,27.69-23.62
				h22.81v-5.21c0-9.94-4.07-15.64-14.82-15.64c-8.96,0-14.17,4.56-16.12,13.52l-16.62-3.75c2.93-14.5,13.85-23.78,33.39-23.78
				c22.15,0,31.6,10.42,31.6,29.48v48.87h-16.61V543.8z M694.53,533.21v-3.09h-19.87c-8.8,0-13.85,3.26-13.85,9.61
				c0,5.54,3.42,10.26,13.36,10.26C686.38,549.99,694.53,542.82,694.53,533.21z"/>
			<path d="M784.94,541.85h-1.14c-3.91,13.19-13.03,22.32-26.71,22.32c-17.59,0-27.85-14.17-27.85-40.07
				c0-26.22,10.42-40.72,28.34-40.56c13.85-0.16,22.32,8.63,26.22,21.99h1.14v-48.05h17.43v104.58h-17.43V541.85z M784.94,527.19
				v-5.87c0-13.19-7.66-21.99-19.55-21.99c-12.7,0-18.89,7.98-18.89,24.76c0,16.46,5.86,24.43,18.89,24.43
				C777.12,548.52,784.94,540.22,784.94,527.19z"/>
			<path d="M820.12,524.74c0-25.9,14.66-41.21,38.6-41.21c23.13,0,34.37,14.01,34.37,35.02c0,2.93,0,6.35-0.33,10.26h-55.22
				c1.3,13.85,8.31,20.85,21.34,20.85c12.22,0,16.45-5.86,18.57-13.19l14.99,4.24c-3.58,13.85-13.19,23.29-33.72,23.29
				C835.27,564,820.12,550.31,820.12,524.74z M837.72,517.09h39.26c-0.65-13.19-6.51-20.04-18.73-20.04
				C846.35,497.05,839.34,503.4,837.72,517.09z"/>
			<path d="M1010.38,562.37c-3.75,0.65-7.33,0.82-10.42,0.82c-11.56,0-22.8-3.91-32.9-10.1c-6.68,6.68-17.92,10.59-30.62,10.59
				c-18.08,0-30.78-8.8-30.78-26.23c0-14.98,9.61-22.97,23.29-28.34c-3.09-7-4.89-13.85-4.89-19.55c0-19.06,14.17-27.2,29.64-27.2
				c19.22,0,27.37,9.12,27.37,21.5c0,18.08-18.73,23.95-33.88,27.2c5.86,9.94,14.82,19.38,25.58,26.06
				c9.45-11.08,14.82-23.29,17.1-36.49l15.8,2.12c-2.61,16.13-11.08,29.16-23.94,39.09c6.19,2.6,12.7,4.07,19.38,4.07
				c2.12,0,5.7,0,8.63-0.16L1010.38,562.37z M957.93,546.57c-11.08-8.96-20.2-20.52-26.22-31.76c-7.17,4.4-10.26,10.91-10.26,18.73
				c0,9.77,6.51,16.61,20.04,16.61C948.32,550.15,953.37,548.85,957.93,546.57z M943.76,504.38c14.33-4.4,21.67-10.1,21.67-18.9
				c0-6.19-3.42-10.26-11.4-10.26c-8.63,0-13.68,5.21-13.68,14.33C940.34,494.12,941.64,499.17,943.76,504.38z"/>
			<path d="M1056.49,590.06c-28.99,0-37.46-6.19-37.46-15.96c0-6.68,7.17-11.57,17.59-13.85v-0.65c-6.84-1.3-10.42-4.89-10.42-10.26
				c0-4.07,3.26-7.66,8.63-10.26l5.86-3.26c-11.4-3.75-17.43-12.05-17.43-23.62c0-17.27,12.54-26.71,33.72-26.71h37.95v13.52h-8.8
				c-4.07,0-8.96-0.33-15.47-0.82l-0.16,1.47c10.1,1.96,18.57,6.19,18.57,16.29c0,13.68-11.57,21.99-32.91,21.99
				c-4.88,0-9.12-0.49-12.87-1.47l-1.79,2.77c-1.14,1.96-1.96,3.26-1.96,4.89c0,3.09,2.44,4.24,7.49,4.24
				c8.63,0,17.43-0.16,25.74-0.16c16.12,0,23.94,7,23.94,18.89C1096.72,582.57,1086.79,590.06,1056.49,590.06z M1082.71,567.58
				c0-4.4-3.09-7.49-10.59-7.49h-26.88c-8.31,0-12.54,4.24-12.54,8.47c0,6.19,4.89,8.8,24.76,8.8
				C1077.99,577.36,1082.71,574.1,1082.71,567.58z M1039.06,512.52c0,8.14,4.56,13.36,17.27,13.36c12.7,0,17.76-5.21,17.76-13.36
				c0-8.14-5.86-13.36-17.92-13.36C1043.95,499.17,1039.06,504.54,1039.06,512.52z"/>
			<path d="M1158.79,543.8H1157c-3.91,12.38-12.7,19.87-26.22,19.87c-13.68,0-23.29-6.51-23.29-21.5c0-13.68,8.31-23.62,27.69-23.62
				h22.81v-5.21c0-9.94-4.07-15.64-14.82-15.64c-8.96,0-14.17,4.56-16.12,13.52l-16.62-3.75c2.93-14.5,13.85-23.78,33.39-23.78
				c22.15,0,31.6,10.42,31.6,29.48v48.87h-16.61V543.8z M1157.97,533.21v-3.09h-19.87c-8.8,0-13.85,3.26-13.85,9.61
				c0,5.54,3.42,10.26,13.36,10.26C1149.83,549.99,1157.97,542.82,1157.97,533.21z"/>
			<path d="M1197.4,472.45v-14.17h19.06v14.17H1197.4z M1198.05,562.04v-76.56h17.59v76.56H1198.05z"/>
			<path d="M1256.37,562.04h-17.43v-76.56h17.1v20.2h1.46c4.24-14.17,14.01-22.15,26.88-22.15c15.96,0,23.62,10.75,23.62,27.36
				v51.15h-17.43v-46.59c0-9.29-4.07-16.13-14.66-16.13c-11.73,0-19.54,7.82-19.54,19.38V562.04z"/>
		</g>
	</g>
</g>
</svg>
