<?xml version="1.0" encoding="utf-8"?>
<!-- Generator: Adobe Illustrator 26.1.0, SVG Export Plug-In . SVG Version: 6.00 Build 0)  -->
<svg version="1.1" xmlns="http://www.w3.org/2000/svg" xmlns:xlink="http://www.w3.org/1999/xlink" x="0px" y="0px"
	 viewBox="0 0 572 529" style="enable-background:new 0 0 572 529;" xml:space="preserve">
<style type="text/css">
	.st0{fill:#FFFFFF;}
	.st1{display:none;}
	.st2{display:inline;}
	.st3{fill:#FF6D00;}
</style>
<g id="Layer_1">
	<g>
		<path d="M518.63,270.98c0,126.76-102.76,229.52-229.52,229.52S59.6,397.74,59.6,270.98S162.35,41.46,289.11,41.46
			S518.63,144.22,518.63,270.98z M289.11,166.37c-57.77,0-104.61,46.84-104.61,104.61s46.84,104.61,104.61,104.61
			s104.61-46.84,104.61-104.61S346.89,166.37,289.11,166.37z"/>
	</g>
	<g>
		<path d="M288.63,169.25c-32.18,0-60.96,11.41-80.15,34.26c0,0-2.12,77.31-15.61,80.99c-14.13,3.85-8.37-34.91-21.73-35.56
			c-22.65-1.11-61.25,63.22-73.6,50.88c-8.89-8.89,22.44-36.93,18.26-40.85c-4.07-3.82-30.12,29-38.52,20.6
			c-8.4-8.4,23.22-35.07,18.77-39.51c-4.45-4.45-31.52,26.76-40.5,17.78c-7.41-7.41,22.72-34.58,19.26-38.03
			c-4.94-4.94-31.42,27.17-38.77,18.52c-7.67-9.02,54.34-87.34,73.29-110.64c42.49-52.21,106.75-89.34,179.29-89.34"/>
		<path class="st0" d="M101.36,303.73c-2.13,0-3.98-0.76-5.48-2.26c-6.73-6.73,2.54-19.21,10.73-30.22
			c2.27-3.06,5.18-6.96,6.51-9.39c-2.35,1.5-6.08,4.68-9,7.16c-10.3,8.77-21.98,18.71-28.49,12.2c-6.32-6.32,2.72-17.94,10.69-28.19
			c2.85-3.66,6.59-8.48,7.58-10.84c-2.33,0.93-7.06,4.45-10.66,7.14c-10.61,7.91-22.64,16.87-29.34,10.17
			c-5.86-5.86,3.33-17.68,11.44-28.11c2.43-3.12,5.57-7.16,6.85-9.45c-2.67,1.15-7.81,5.19-11.42,8.03
			c-10.28,8.08-20.9,16.44-26.5,9.87c-1.99-2.34-6.14-7.21,26.54-52.85c18.69-26.1,40.49-53.12,46.72-60.78
			C154.18,68.88,220.19,36,288.63,36v4.68c-67.03,0-131.71,32.25-177.48,88.47c-6.13,7.53-27.55,34.08-46.07,59.89
			c-29.64,41.31-27.58,47.23-27.25,47.77c2.66,3.12,13.53-5.43,20.02-10.53c8.69-6.84,14.97-11.78,18.61-8.14
			c2.87,2.86-0.8,7.57-7.44,16.11c-5.16,6.63-14.76,18.98-11.82,21.92c3.84,3.84,15.51-4.86,23.23-10.61
			c8.43-6.29,14.01-10.44,17.27-7.17c3.33,3.33-1.05,8.97-7.7,17.51c-5.76,7.41-14.47,18.6-11.07,22
			c3.46,3.46,15.16-6.5,22.14-12.45c8.19-6.97,13.14-11.18,16.32-8.2c3.21,3.01-0.65,8.2-7.04,16.79
			c-5.99,8.06-15.05,20.24-11.17,24.11c0.61,0.61,1.28,0.89,2.17,0.89c0.01,0,0.02,0,0.03,0c5.93-0.04,16.99-11.4,27.69-22.38
			c14.68-15.08,29.9-30.67,42.18-30.07c8.28,0.41,10.46,10.6,12.57,20.46c1.33,6.2,2.83,13.23,5.68,14.96
			c0.47,0.29,1.27,0.62,2.75,0.22c8.15-2.22,13.03-47.41,13.89-78.79l0.02-0.82l0.52-0.63c19-22.63,48.1-35.1,81.94-35.1v4.68
			c-32.12,0-59.73,11.65-77.83,32.81c-0.13,3.92-0.79,21.12-2.73,38.48c-4.13,36.89-10.3,42.71-14.58,43.87
			c-2.38,0.65-4.55,0.4-6.42-0.74c-4.57-2.78-6.15-10.16-7.82-17.98c-1.74-8.13-3.54-16.54-8.22-16.77
			c-10.16-0.46-25.28,14.99-38.59,28.66c-12.41,12.74-23.12,23.74-31.01,23.79C101.4,303.73,101.38,303.73,101.36,303.73z"/>
	</g>
	<g>
		<path d="M288.33,373.45c32.18,0,60.96-12.97,80.15-35.82c0,0,2.12-77.31,15.61-80.99c14.13-3.85,8.37,34.91,21.73,35.56
			c22.65,1.11,61.25-63.22,73.6-50.88c8.89,8.89-22.44,36.93-18.26,40.85c4.07,3.82,30.12-29,38.52-20.6
			c8.4,8.4-23.22,35.07-18.77,39.51s31.52-26.76,40.5-17.78c7.41,7.41-22.72,34.58-19.26,38.03c4.94,4.94,31.42-27.17,38.77-18.52
			c7.67,9.02-54.34,87.34-73.29,110.64c-42.49,52.21-106.75,89.34-179.29,89.34"/>
		<path class="st0" d="M288.33,505.14v-4.68c67.03,0,131.71-32.25,177.48-88.47c6.13-7.53,27.56-34.09,46.07-59.89
			c29.64-41.31,27.58-47.23,27.25-47.77c-2.66-3.12-13.53,5.43-20.03,10.53c-8.69,6.84-14.98,11.78-18.61,8.14
			c-2.86-2.87,0.8-7.57,7.44-16.11c5.16-6.63,14.76-18.98,11.82-21.92c-3.84-3.85-15.51,4.86-23.23,10.61
			c-8.43,6.29-14.01,10.44-17.27,7.17c-3.33-3.33,1.05-8.97,7.7-17.51c5.76-7.41,14.47-18.6,11.07-22
			c-3.46-3.46-15.15,6.51-22.14,12.45c-8.19,6.98-13.14,11.18-16.32,8.2c-3.21-3.01,0.65-8.2,7.04-16.79
			c5.99-8.06,15.05-20.24,11.17-24.11c-0.62-0.62-1.33-0.96-2.19-0.89c-5.93,0.04-16.99,11.4-27.69,22.38
			c-14.41,14.8-29.3,30.09-41.48,30.09c-0.24,0-0.47-0.01-0.7-0.02c-8.28-0.41-10.46-10.6-12.57-20.47
			c-1.33-6.2-2.83-13.23-5.68-14.96c-0.47-0.29-1.27-0.62-2.75-0.22c-7.39,2.02-12.87,41.65-13.89,78.79l-0.02,0.82l-0.52,0.63
			c-19.56,23.3-49.43,36.66-81.94,36.66v-4.68c31.3,0,58.91-12.2,77.84-34.37c0.13-3.92,0.79-21.12,2.73-38.49
			c4.13-36.89,10.3-42.71,14.58-43.87c2.39-0.65,4.54-0.4,6.42,0.74c4.57,2.78,6.15,10.16,7.82,17.98
			c1.74,8.13,3.54,16.54,8.22,16.77c10.15,0.5,25.28-14.99,38.59-28.66c12.41-12.74,23.12-23.74,31.01-23.79c0.02,0,0.04,0,0.06,0
			c2.13,0,3.98,0.76,5.48,2.26c6.73,6.73-2.54,19.21-10.73,30.22c-2.27,3.06-5.18,6.96-6.51,9.39c2.35-1.5,6.08-4.68,9-7.16
			c10.3-8.77,21.98-18.71,28.49-12.2c6.32,6.32-2.71,17.94-10.69,28.19c-2.85,3.66-6.59,8.47-7.58,10.84
			c2.33-0.93,7.06-4.45,10.66-7.13c10.61-7.91,22.63-16.87,29.34-10.17c5.86,5.86-3.33,17.68-11.44,28.11
			c-2.43,3.12-5.57,7.16-6.85,9.45c2.67-1.15,7.81-5.19,11.42-8.03c10.28-8.08,20.91-16.45,26.5-9.87
			c1.99,2.34,6.14,7.21-26.54,52.85c-18.68,26.09-40.48,53.12-46.72,60.78C422.78,472.26,356.77,505.14,288.33,505.14z"/>
	</g>
</g>
<g id="Layer_5" class="st1">
	<g class="st2">
		<path class="st3" d="M508.14,302.8c0,125.7-101.9,227.6-227.6,227.6S52.94,428.5,52.94,302.8s101.9-227.6,227.6-227.6
			S508.14,177.09,508.14,302.8z M280.54,199.06c-57.29,0-103.74,46.44-103.74,103.74s46.44,103.74,103.74,103.74
			s103.74-46.44,103.74-103.74S337.84,199.06,280.54,199.06z"/>
	</g>
	<g class="st2">
		<path class="st3" d="M280.07,201.91c-31.91,0-60.45,11.31-79.48,33.97c0,0-2.1,76.66-15.48,80.31
			c-14.01,3.82-8.3-34.62-21.55-35.27c-22.46-1.1-60.74,62.7-72.98,50.45c-8.82-8.82,22.26-36.62,18.11-40.51
			c-4.04-3.79-29.87,28.75-38.19,20.43c-8.33-8.33,23.02-34.78,18.61-39.19c-4.41-4.41-31.26,26.54-40.17,17.63
			c-7.35-7.35,22.53-34.29,19.1-37.72c-4.9-4.9-31.15,26.94-38.45,18.37c-7.61-8.95,53.88-86.62,72.68-109.71
			c42.14-51.77,105.86-88.59,177.8-88.59"/>
		<path class="st0" d="M94.36,336.04c-2.3,0-4.37-0.85-5.98-2.47c-7.15-7.15,2.26-19.81,10.57-30.97c1.33-1.79,2.89-3.89,4.2-5.79
			c-1.82,1.45-3.83,3.16-5.55,4.62c-10.47,8.91-22.34,19.02-29.3,12.05c-6.75-6.75,2.43-18.56,10.54-28.98
			c2.06-2.65,4.61-5.93,6.18-8.36c-2.38,1.47-5.58,3.85-8.16,5.78c-10.77,8.03-22.99,17.14-30.11,10.01
			c-6.3-6.3,2.64-17.79,11.28-28.9c1.61-2.08,3.56-4.58,5.02-6.65c-2.61,1.72-5.94,4.34-8.47,6.33
			c-10.48,8.24-21.32,16.77-27.34,9.68c-2.26-2.66-6.48-7.61,26.28-53.36c18.54-25.9,40.17-52.71,46.36-60.32
			C146.28,101.71,211.96,69,280.07,69v6.19c-66.23,0-130.16,31.87-175.4,87.45c-5.92,7.27-26.63,32.94-44.81,58.17
			c-27.65,38.38-28.13,46.31-27.82,47.68c2.38,2.17,13.38-6.46,18.7-10.64c8.94-7.03,15.39-12.1,19.48-8.01
			c3.32,3.32-0.45,8.18-7.31,17c-3.89,5-14.22,18.28-11.79,20.72c3.34,3.34,15.03-5.39,22.03-10.6c8.69-6.47,14.42-10.75,18.14-7.04
			c3.79,3.79-0.73,9.6-7.57,18.39c-4.87,6.26-13.93,17.91-11.05,20.79c2.92,2.91,15.07-7.42,20.91-12.39
			c8.45-7.2,13.55-11.54,17.22-8.1c3.69,3.46-0.29,8.81-6.89,17.68c-5.08,6.83-14.52,19.53-11.16,22.9
			c0.47,0.47,0.98,0.66,1.62,0.65c5.56-0.04,16.9-11.68,26.91-21.96c14.4-14.79,29.28-30.07,41.69-30.07c0.24,0,0.49,0.01,0.73,0.02
			c8.8,0.43,11.13,11.31,13.19,20.91c1.22,5.7,2.74,12.79,5.28,14.34c0.38,0.23,0.96,0.45,2.12,0.13c0.65-0.18,6.45-2.77,10.5-38.88
			c2.16-19.27,2.7-38.34,2.71-38.53l0.03-1.08l0.69-0.83c18.99-22.62,48.06-35.08,81.85-35.08v6.19
			c-31.52,0-58.61,11.38-76.42,32.06c-0.15,4.37-0.82,21.09-2.71,37.95c-4.1,36.64-10.18,42.85-15.02,44.17
			c-2.58,0.7-4.92,0.43-6.97-0.82c-4.82-2.93-6.42-10.41-8.11-18.33c-1.59-7.41-3.39-15.82-7.43-16.02
			c-9.72-0.51-24.59,14.75-37.67,28.19c-12.42,12.76-23.15,23.78-31.3,23.83C94.4,336.04,94.38,336.04,94.36,336.04z M32.07,268.6
			C32.07,268.6,32.07,268.6,32.07,268.6L32.07,268.6z"/>
	</g>
	<g class="st2">
		<path class="st3" d="M279.76,404.41c31.91,0,60.45-12.86,79.48-35.52c0,0,2.1-76.66,15.48-80.31c14.01-3.82,8.3,34.62,21.55,35.27
			c22.46,1.1,60.74-62.7,72.98-50.45c8.82,8.82-22.26,36.62-18.11,40.51c4.04,3.79,29.87-28.75,38.19-20.43
			c8.33,8.33-23.02,34.78-18.61,39.19c4.41,4.41,31.26-26.54,40.17-17.63c7.35,7.35-22.53,34.29-19.1,37.72
			c4.9,4.9,31.15-26.94,38.45-18.37c7.61,8.95-53.88,86.62-72.68,109.71c-42.14,51.77-105.86,88.59-177.8,88.59"/>
		<path class="st0" d="M279.76,535v-4.64c66.47,0,130.62-31.98,176-87.74c6.08-7.46,27.33-33.81,45.68-59.39
			c29.4-40.96,27.35-46.83,27.02-47.37c-2.64-3.1-13.42,5.38-19.86,10.45c-8.62,6.78-14.85,11.68-18.46,8.07
			c-2.84-2.84,0.79-7.51,7.38-15.98c5.12-6.58,14.64-18.82,11.72-21.74c-3.81-3.81-15.38,4.82-23.04,10.52
			c-8.36,6.23-13.89,10.35-17.13,7.11c-3.31-3.31,1.04-8.9,7.63-17.37c5.71-7.35,14.35-18.45,10.98-21.82
			c-3.43-3.42-15.03,6.45-21.96,12.35c-8.12,6.92-13.03,11.09-16.18,8.13c-3.18-2.99,0.64-8.13,6.98-16.65
			c5.94-7.99,14.92-20.07,11.08-23.91c-0.62-0.62-1.33-0.91-2.18-0.88c-5.88,0.04-16.85,11.3-27.46,22.19
			c-14.56,14.95-29.59,30.45-41.82,29.82c-8.21-0.4-10.37-10.51-12.47-20.29c-1.32-6.15-2.81-13.12-5.63-14.83
			c-0.47-0.29-1.26-0.62-2.73-0.22c-7.33,2-12.76,41.3-13.77,78.14l-0.54,1.43c-19.4,23.1-49.02,36.35-81.26,36.35v-4.64
			c31.04,0,58.41-12.1,77.19-34.08c0.13-3.88,0.78-20.95,2.71-38.16c4.1-36.58,10.21-42.35,14.45-43.51
			c2.36-0.65,4.51-0.4,6.36,0.73c4.53,2.76,6.1,10.08,7.76,17.83c1.73,8.06,3.51,16.4,8.15,16.63
			c10.06,0.47,25.07-14.86,38.27-28.42c12.3-12.63,22.93-23.55,30.75-23.6c2.15,0.02,3.99,0.74,5.49,2.24
			c6.68,6.68-2.52,19.05-10.64,29.96c-2.26,3.03-5.13,6.91-6.45,9.32c2.33-1.49,6.03-4.64,8.92-7.1c10.22-8.7,21.8-18.55,28.25-12.1
			c6.27,6.27-2.69,17.79-10.6,27.95c-2.82,3.63-6.54,8.4-7.52,10.76c2.31-0.92,7-4.42,10.57-7.07c10.52-7.84,22.45-16.74,29.1-10.08
			c5.82,5.82-3.3,17.53-11.34,27.87c-2.41,3.1-5.52,7.1-6.79,9.37c2.65-1.14,7.75-5.15,11.33-7.97
			c10.19-8.02,20.73-16.31,26.28-9.79c1.98,2.32,6.09,7.15-26.32,52.41c-18.52,25.87-40.15,52.68-46.33,60.28
			C413.1,502.4,347.63,535,279.76,535z"/>
	</g>
</g>
<g id="Layer_3" class="st1">
	<g class="st2">
		<path class="st3" d="M-267.3,347.61c0,51.4-41.67,93.08-93.08,93.08s-93.08-41.67-93.08-93.08s41.67-93.08,93.08-93.08
			S-267.3,296.2-267.3,347.61z M-360.37,305.19c-23.43,0-42.42,18.99-42.42,42.42s18.99,42.42,42.42,42.42s42.42-18.99,42.42-42.42
			S-336.95,305.19-360.37,305.19z"/>
	</g>
	<g class="st2">
		<path class="st3" d="M-360.57,306.35c-13.05,0-24.72,4.63-32.5,13.89c0,0-0.86,31.35-6.33,32.84c-5.73,1.56-3.39-14.16-8.81-14.42
			c-9.19-0.45-24.84,25.64-29.85,20.63c-3.61-3.61,9.1-14.98,7.41-16.57c-1.65-1.55-12.21,11.76-15.62,8.35
			c-3.41-3.41,9.41-14.22,7.61-16.02c-1.8-1.8-12.78,10.85-16.43,7.21c-3-3,9.21-14.02,7.81-15.42c-2-2-12.74,11.02-15.72,7.51
			c-3.11-3.66,22.03-35.42,29.72-44.87c17.23-21.17,43.29-36.23,72.71-36.23"/>
		<path class="st0" d="M-436.51,361.2c-0.94,0-1.79-0.35-2.45-1.01c-2.92-2.92,0.92-8.1,4.32-12.67c0.55-0.73,1.18-1.59,1.72-2.37
			c-0.74,0.59-1.57,1.29-2.27,1.89c-4.28,3.64-9.14,7.78-11.98,4.93c-2.76-2.76,0.99-7.59,4.31-11.85c0.84-1.08,1.89-2.43,2.53-3.42
			c-0.97,0.6-2.28,1.58-3.34,2.36c-4.41,3.28-9.4,7.01-12.31,4.09c-2.58-2.58,1.08-7.27,4.61-11.82c0.66-0.85,1.45-1.87,2.05-2.72
			c-1.07,0.7-2.43,1.77-3.47,2.59c-4.29,3.37-8.72,6.86-11.18,3.96c-0.93-1.09-2.65-3.11,10.75-21.82
			c7.58-10.59,16.43-21.56,18.96-24.67c18.98-23.32,45.84-36.7,73.69-36.7v2.53c-27.09,0-53.23,13.03-71.73,35.76
			c-2.42,2.97-10.89,13.47-18.32,23.79c-11.31,15.69-11.5,18.94-11.38,19.5c0.97,0.89,5.47-2.64,7.65-4.35
			c3.65-2.87,6.29-4.95,7.97-3.28c1.36,1.36-0.19,3.35-2.99,6.95c-1.59,2.04-5.82,7.48-4.82,8.47c1.36,1.36,6.15-2.2,9.01-4.33
			c3.55-2.65,5.9-4.4,7.42-2.88c1.55,1.55-0.3,3.93-3.1,7.52c-1.99,2.56-5.7,7.32-4.52,8.5c1.19,1.19,6.16-3.03,8.55-5.07
			c3.46-2.94,5.54-4.72,7.04-3.31c1.51,1.41-0.12,3.6-2.82,7.23c-2.08,2.79-5.94,7.99-4.56,9.36c0.19,0.19,0.4,0.27,0.66,0.27
			c2.27-0.01,6.91-4.78,11-8.98c5.89-6.05,11.97-12.3,17.05-12.3c0.1,0,0.2,0,0.3,0.01c3.6,0.18,4.55,4.63,5.39,8.55
			c0.5,2.33,1.12,5.23,2.16,5.86c0.15,0.09,0.39,0.18,0.87,0.05c0.27-0.07,2.64-1.13,4.29-15.9c0.88-7.88,1.1-15.68,1.11-15.76
			l0.01-0.44l0.28-0.34c7.77-9.25,19.65-14.35,33.47-14.35v2.53c-12.89,0-23.97,4.65-31.25,13.11c-0.06,1.79-0.33,8.62-1.11,15.52
			c-1.68,14.98-4.16,17.52-6.14,18.06c-1.06,0.29-2.01,0.18-2.85-0.33c-1.97-1.2-2.62-4.26-3.32-7.49
			c-0.65-3.03-1.39-6.47-3.04-6.55c-3.98-0.21-10.06,6.03-15.41,11.53c-5.08,5.22-9.47,9.72-12.8,9.75
			C-436.5,361.2-436.5,361.2-436.51,361.2z M-461.99,333.62C-461.99,333.62-461.99,333.62-461.99,333.62L-461.99,333.62z"/>
	</g>
	<g class="st2">
		<path class="st3" d="M-360.69,389.16c13.05,0,24.72-5.26,32.5-14.53c0,0,0.86-31.35,6.33-32.84c5.73-1.56,3.39,14.16,8.81,14.42
			c9.19,0.45,24.84-25.64,29.85-20.63c3.61,3.61-9.1,14.98-7.41,16.57c1.65,1.55,12.21-11.76,15.62-8.35s-9.41,14.22-7.61,16.02
			c1.8,1.8,12.78-10.85,16.43-7.21c3,3-9.21,14.02-7.81,15.42c2,2,12.74-11.02,15.72-7.51c3.11,3.66-22.03,35.42-29.72,44.87
			c-17.23,21.17-43.29,36.23-72.71,36.23"/>
		<path class="st0" d="M-360.69,442.57v-1.9c27.18,0,53.41-13.08,71.97-35.88c2.48-3.05,11.18-13.83,18.68-24.29
			c12.02-16.75,11.19-19.15,11.05-19.37c-1.08-1.27-5.49,2.2-8.12,4.27c-3.53,2.77-6.07,4.77-7.55,3.3
			c-1.16-1.16,0.32-3.07,3.02-6.54c2.09-2.69,5.99-7.7,4.79-8.89c-1.56-1.56-6.29,1.97-9.42,4.3c-3.42,2.55-5.68,4.23-7,2.91
			c-1.35-1.35,0.43-3.64,3.12-7.1c2.34-3,5.87-7.54,4.49-8.92c-1.4-1.4-6.15,2.64-8.98,5.05c-3.32,2.83-5.33,4.54-6.62,3.32
			c-1.3-1.22,0.26-3.33,2.85-6.81c2.43-3.27,6.1-8.21,4.53-9.78c-0.25-0.25-0.54-0.37-0.89-0.36c-2.41,0.02-6.89,4.62-11.23,9.08
			c-5.96,6.12-12.1,12.45-17.1,12.19c-3.36-0.17-4.24-4.3-5.1-8.3c-0.54-2.51-1.15-5.36-2.3-6.07c-0.19-0.12-0.52-0.25-1.12-0.09
			c-3,0.82-5.22,16.89-5.63,31.95l-0.22,0.58c-7.93,9.45-20.04,14.87-33.23,14.87v-1.9c12.69,0,23.89-4.95,31.56-13.94
			c0.05-1.59,0.32-8.57,1.11-15.61c1.68-14.96,4.18-17.32,5.91-17.79c0.97-0.26,1.84-0.16,2.6,0.3c1.85,1.13,2.49,4.12,3.17,7.29
			c0.71,3.3,1.44,6.71,3.33,6.8c4.12,0.19,10.25-6.08,15.65-11.62c5.03-5.17,9.38-9.63,12.58-9.65c0.88,0.01,1.63,0.3,2.25,0.92
			c2.73,2.73-1.03,7.79-4.35,12.25c-0.92,1.24-2.1,2.82-2.64,3.81c0.95-0.61,2.46-1.9,3.65-2.9c4.18-3.56,8.91-7.59,11.55-4.95
			c2.56,2.56-1.1,7.28-4.33,11.43c-1.15,1.48-2.67,3.44-3.07,4.4c0.95-0.38,2.86-1.81,4.32-2.89c4.3-3.21,9.18-6.84,11.9-4.12
			c2.38,2.38-1.35,7.17-4.64,11.4c-0.98,1.27-2.26,2.9-2.78,3.83c1.08-0.47,3.17-2.11,4.63-3.26c4.17-3.28,8.48-6.67,10.75-4
			c0.81,0.95,2.49,2.92-10.76,21.43c-7.58,10.58-16.42,21.54-18.95,24.65C-306.17,429.24-332.94,442.57-360.69,442.57z"/>
	</g>
	<g class="st2">
		<path class="st3" d="M-206.91,344.94h-6.8v-8.97h6.8v-13.09h11.13v13.09h14.22v8.97h-14.22v23.19c0,4.74,1.75,7.21,6.6,7.21
			c2.47,0,4.64-0.52,7.01-1.24l1.34,9.9c-3.61,1.13-6.08,1.75-10.92,1.75c-10.62,0-15.15-7.01-15.15-16.08V344.94z"/>
		<path class="st3" d="M-170.52,384.42v-48.44h10.51v14.53l0.93,0.1c2.78-11.75,7.32-15.15,14.33-15.15h1.75v12.47h-2.68
			c-10.2,0-13.81,3.61-13.81,13.5v22.99H-170.52z"/>
		<path class="st3" d="M-103.42,372.87h-1.13c-2.47,7.83-8.04,12.57-16.59,12.57c-8.66,0-14.74-4.12-14.74-13.61
			c0-8.66,5.26-14.95,17.52-14.95h14.43v-3.3c0-6.29-2.58-9.9-9.38-9.9c-5.67,0-8.97,2.89-10.2,8.56l-10.51-2.37
			c1.86-9.17,8.76-15.05,21.13-15.05c14.02,0,20,6.6,20,18.66v30.92h-10.51V372.87z M-103.93,366.17v-1.96h-12.57
			c-5.57,0-8.76,2.06-8.76,6.08c0,3.5,2.16,6.49,8.45,6.49C-109.09,376.79-103.93,372.26-103.93,366.17z"/>
		<path class="st3" d="M-46.73,371.64h-0.72c-2.47,8.35-8.24,14.12-16.9,14.12c-11.13,0-17.63-8.97-17.63-25.36
			c0-16.59,6.6-25.77,17.94-25.66c8.76-0.1,14.12,5.46,16.59,13.91h0.72v-30.41h11.03v66.17h-11.03V371.64z M-46.73,362.36v-3.71
			c0-8.35-4.84-13.91-12.37-13.91c-8.04,0-11.96,5.05-11.96,15.67c0,10.41,3.71,15.46,11.96,15.46
			C-51.68,375.86-46.73,370.61-46.73,362.36z"/>
		<path class="st3" d="M-24.46,360.82c0-16.39,9.28-26.08,24.43-26.08c14.64,0,21.75,8.86,21.75,22.16c0,1.86,0,4.02-0.21,6.49
			h-34.94c0.83,8.76,5.26,13.19,13.5,13.19c7.73,0,10.41-3.71,11.75-8.35l9.48,2.68c-2.27,8.76-8.35,14.74-21.34,14.74
			C-14.88,385.66-24.46,377-24.46,360.82z M-13.33,355.97h24.84c-0.41-8.35-4.12-12.68-11.85-12.68
			C-7.87,343.29-12.3,347.31-13.33,355.97z"/>
		<path class="st3" d="M95.93,384.62c-2.37,0.41-4.64,0.52-6.6,0.52c-7.32,0-14.43-2.47-20.82-6.39c-4.23,4.22-11.34,6.7-19.38,6.7
			c-11.44,0-19.48-5.57-19.48-16.59c0-9.48,6.08-14.53,14.74-17.93c-1.96-4.43-3.09-8.76-3.09-12.37c0-12.06,8.97-17.21,18.76-17.21
			c12.16,0,17.32,5.77,17.32,13.6c0,11.44-11.85,15.15-21.44,17.21c3.71,6.29,9.38,12.26,16.18,16.49
			c5.98-7.01,9.38-14.74,10.82-23.09l10,1.34c-1.65,10.2-7.01,18.45-15.15,24.74c3.92,1.65,8.04,2.58,12.26,2.58
			c1.34,0,3.61,0,5.46-0.1L95.93,384.62z M62.74,374.63c-7.01-5.67-12.78-12.99-16.59-20.1c-4.54,2.78-6.49,6.9-6.49,11.85
			c0,6.18,4.12,10.51,12.68,10.51C56.66,376.89,59.85,376.07,62.74,374.63z M53.77,347.93c9.07-2.78,13.71-6.39,13.71-11.96
			c0-3.92-2.16-6.49-7.22-6.49c-5.46,0-8.66,3.3-8.66,9.07C51.61,341.44,52.43,344.63,53.77,347.93z"/>
		<path class="st3" d="M125.1,402.15c-18.35,0-23.71-3.92-23.71-10.1c0-4.23,4.54-7.32,11.13-8.76v-0.41
			c-4.33-0.82-6.6-3.09-6.6-6.49c0-2.58,2.06-4.84,5.46-6.49l3.71-2.06c-7.21-2.37-11.03-7.63-11.03-14.95
			c0-10.93,7.94-16.9,21.34-16.9h24.02v8.55h-5.57c-2.58,0-5.67-0.21-9.79-0.52l-0.1,0.93c6.39,1.24,11.75,3.92,11.75,10.31
			c0,8.66-7.32,13.91-20.82,13.91c-3.09,0-5.77-0.31-8.14-0.93l-1.13,1.75c-0.72,1.24-1.24,2.06-1.24,3.09
			c0,1.96,1.55,2.68,4.74,2.68c5.46,0,11.03-0.1,16.29-0.1c10.2,0,15.15,4.43,15.15,11.96C150.56,397.4,144.27,402.15,125.1,402.15z
			 M141.69,387.92c0-2.78-1.96-4.74-6.7-4.74h-17.01c-5.26,0-7.94,2.68-7.94,5.36c0,3.92,3.09,5.57,15.67,5.57
			C138.71,394.11,141.69,392.05,141.69,387.92z M114.07,353.09c0,5.15,2.89,8.45,10.92,8.45s11.23-3.3,11.23-8.45
			s-3.71-8.45-11.34-8.45C117.16,344.63,114.07,348.03,114.07,353.09z"/>
		<path class="st3" d="M189.83,372.87h-1.13c-2.47,7.83-8.04,12.57-16.59,12.57c-8.66,0-14.74-4.12-14.74-13.61
			c0-8.66,5.26-14.95,17.52-14.95h14.43v-3.3c0-6.29-2.58-9.9-9.38-9.9c-5.67,0-8.97,2.89-10.2,8.56l-10.51-2.37
			c1.86-9.17,8.76-15.05,21.13-15.05c14.02,0,20,6.6,20,18.66v30.92h-10.51V372.87z M189.32,366.17v-1.96h-12.57
			c-5.57,0-8.76,2.06-8.76,6.08c0,3.5,2.16,6.49,8.45,6.49C184.16,376.79,189.32,372.26,189.32,366.17z"/>
		<path class="st3" d="M214.26,327.73v-8.97h12.06v8.97H214.26z M214.67,384.42v-48.44h11.13v48.44H214.67z"/>
		<path class="st3" d="M251.57,384.42h-11.03v-48.44h10.82v12.78h0.93c2.68-8.97,8.86-14.02,17.01-14.02
			c10.1,0,14.95,6.8,14.95,17.31v32.37h-11.03v-29.48c0-5.88-2.58-10.2-9.28-10.2c-7.42,0-12.37,4.95-12.37,12.26V384.42z"/>
	</g>
</g>
<g id="Layer_4" class="st1">
	<g class="st2">
		<g>
			<path d="M35.31,251.41c0,89.23-72.33,161.56-161.56,161.56s-161.56-72.33-161.56-161.56s72.33-161.56,161.56-161.56
				S35.31,162.18,35.31,251.41z M-126.25,177.77c-40.67,0-73.64,32.97-73.64,73.64s32.97,73.64,73.64,73.64s73.64-32.97,73.64-73.64
				S-85.58,177.77-126.25,177.77z"/>
		</g>
		<g>
			<path d="M-126.59,179.8c-22.65,0-42.91,8.03-56.42,24.12c0,0-1.49,54.42-10.99,57.01c-9.95,2.71-5.89-24.57-15.3-25.03
				c-15.94-0.78-43.11,44.5-51.81,35.81c-6.26-6.26,15.8-25.99,12.86-28.76c-2.87-2.69-21.2,20.41-27.11,14.5
				c-5.91-5.91,16.34-24.69,13.21-27.82c-3.13-3.13-22.19,18.84-28.51,12.52c-5.22-5.22,15.99-24.34,13.56-26.77
				c-3.48-3.48-22.11,19.13-27.29,13.04c-5.4-6.35,38.25-61.48,51.59-77.88c29.91-36.75,75.14-62.89,126.21-62.89"/>
			<path class="st0" d="M-258.41,274.46c-1.5,0-2.8-0.54-3.86-1.59c-4.74-4.74,1.79-13.52,7.55-21.27c1.6-2.15,3.64-4.9,4.58-6.61
				c-1.66,1.06-4.28,3.29-6.33,5.04c-7.25,6.17-15.47,13.17-20.06,8.59c-4.45-4.45,1.91-12.63,7.52-19.84
				c2-2.58,4.64-5.97,5.34-7.63c-1.64,0.65-4.97,3.13-7.51,5.02c-7.47,5.57-15.93,11.88-20.65,7.16
				c-4.13-4.13,2.34-12.45,8.05-19.79c1.71-2.2,3.92-5.04,4.82-6.65c-1.88,0.81-5.5,3.66-8.04,5.66
				c-7.24,5.69-14.72,11.58-18.65,6.95c-1.4-1.65-4.32-5.08,18.68-37.2c13.15-18.37,28.5-37.39,32.89-42.79
				C-221.23,109.14-174.76,86-126.59,86v3.3c-47.18,0-92.72,22.7-124.93,62.28c-4.31,5.3-19.39,23.99-32.43,42.16
				c-20.87,29.08-19.41,33.24-19.18,33.62c1.87,2.2,9.52-3.82,14.1-7.42c6.12-4.81,10.54-8.29,13.1-5.73
				c2.02,2.02-0.56,5.33-5.24,11.34c-3.63,4.67-10.39,13.36-8.32,15.43c2.7,2.71,10.92-3.42,16.35-7.47
				c5.94-4.43,9.86-7.35,12.16-5.05c2.35,2.35-0.74,6.32-5.42,12.33c-4.06,5.22-10.19,13.1-7.8,15.49
				c2.44,2.43,10.67-4.58,15.59-8.77c5.77-4.91,9.25-7.87,11.49-5.77c2.26,2.12-0.46,5.77-4.95,11.82
				c-4.22,5.67-10.59,14.25-7.87,16.97c0.43,0.43,0.9,0.63,1.52,0.63c0.01,0,0.01,0,0.02,0c4.18-0.03,11.96-8.02,19.49-15.75
				c10.34-10.62,21.05-21.59,29.69-21.17c5.83,0.29,7.36,7.46,8.85,14.41c0.93,4.36,1.99,9.31,4,10.53c0.33,0.2,0.9,0.44,1.94,0.15
				c5.74-1.56,9.17-33.38,9.77-55.46l0.02-0.57l0.37-0.44c13.38-15.93,33.86-24.71,57.68-24.71v3.3c-22.61,0-42.04,8.2-54.79,23.09
				c-0.09,2.76-0.56,14.87-1.92,27.09c-2.91,25.97-7.25,30.06-10.26,30.88c-1.68,0.46-3.2,0.28-4.52-0.52
				c-3.22-1.96-4.33-7.15-5.51-12.66c-1.23-5.72-2.49-11.64-5.79-11.8c-7.15-0.33-17.79,10.55-27.16,20.17
				c-8.73,8.97-16.27,16.71-21.83,16.75C-258.38,274.46-258.4,274.46-258.41,274.46z"/>
		</g>
		<g>
			<path d="M-126.8,323.54c22.65,0,42.91-9.13,56.42-25.22c0,0,1.49-54.42,10.99-57.01c9.95-2.71,5.89,24.57,15.3,25.03
				c15.94,0.78,43.11-44.5,51.81-35.81c6.26,6.26-15.8,25.99-12.86,28.76c2.87,2.69,21.2-20.41,27.11-14.5
				c5.91,5.91-16.34,24.69-13.21,27.82c3.13,3.13,22.19-18.84,28.51-12.52c5.22,5.22-15.99,24.34-13.56,26.77
				c3.48,3.48,22.11-19.13,27.29-13.04c5.4,6.35-38.25,61.48-51.59,77.88c-29.91,36.75-75.14,62.89-126.21,62.89"/>
			<path class="st0" d="M-126.8,416.24v-3.3c47.18,0,92.72-22.7,124.93-62.28c4.31-5.3,19.4-24,32.43-42.16
				c20.87-29.08,19.41-33.24,19.18-33.62c-1.87-2.2-9.52,3.82-14.1,7.42c-6.12,4.81-10.54,8.29-13.1,5.73
				c-2.02-2.02,0.56-5.33,5.24-11.34c3.63-4.67,10.39-13.36,8.32-15.43c-2.71-2.71-10.92,3.42-16.35,7.47
				c-5.94,4.42-9.86,7.35-12.16,5.05c-2.35-2.35,0.74-6.32,5.42-12.33c4.06-5.21,10.19-13.1,7.8-15.49
				c-2.43-2.43-10.67,4.58-15.59,8.77c-5.77,4.91-9.25,7.87-11.49,5.77c-2.26-2.12,0.46-5.77,4.95-11.82
				C2.9,243,9.27,234.43,6.55,231.7c-0.44-0.44-0.94-0.67-1.54-0.63c-4.18,0.03-11.96,8.02-19.49,15.75
				c-10.14,10.42-20.62,21.18-29.2,21.18c-0.17,0-0.33,0-0.49-0.01c-5.83-0.29-7.36-7.46-8.85-14.41c-0.93-4.36-1.99-9.31-4-10.53
				c-0.33-0.2-0.89-0.44-1.94-0.15c-5.2,1.42-9.06,29.32-9.77,55.46l-0.02,0.57l-0.37,0.44c-13.77,16.4-34.79,25.8-57.68,25.8v-3.3
				c22.03,0,41.47-8.59,54.79-24.19c0.09-2.76,0.56-14.87,1.92-27.09c2.91-25.97,7.25-30.06,10.26-30.88
				c1.68-0.46,3.2-0.28,4.52,0.52c3.22,1.96,4.33,7.15,5.51,12.66c1.23,5.72,2.49,11.64,5.79,11.8c7.14,0.35,17.8-10.55,27.16-20.17
				c8.73-8.97,16.27-16.71,21.83-16.75c0.01,0,0.03,0,0.04,0c1.5,0,2.8,0.54,3.86,1.59c4.74,4.74-1.79,13.52-7.55,21.27
				c-1.6,2.15-3.64,4.9-4.58,6.61c1.66-1.06,4.28-3.29,6.33-5.04c7.25-6.17,15.47-13.17,20.06-8.59c4.45,4.45-1.91,12.63-7.52,19.84
				c-2,2.58-4.64,5.97-5.34,7.63c1.64-0.65,4.97-3.13,7.5-5.02c7.47-5.57,15.93-11.88,20.65-7.16c4.13,4.13-2.34,12.45-8.05,19.78
				c-1.71,2.2-3.92,5.04-4.82,6.65c1.88-0.81,5.5-3.66,8.04-5.66c7.24-5.69,14.72-11.58,18.65-6.95c1.4,1.65,4.32,5.08-18.68,37.2
				c-13.15,18.36-28.5,37.39-32.89,42.79C-32.16,393.09-78.62,416.24-126.8,416.24z"/>
		</g>
		<g>
			<path d="M135.6,247.45h-11.64v-15.34h11.64v-22.4h19.05v22.4h24.34v15.34h-24.34v39.68c0,8.11,3,12.34,11.29,12.34
				c4.23,0,7.94-0.88,11.99-2.12l2.29,16.93c-6.17,1.94-10.4,3-18.69,3c-18.17,0-25.92-11.99-25.92-27.52V247.45z"/>
			<path d="M197.86,315v-82.89h17.99v24.87l1.59,0.17c4.76-20.11,12.52-25.92,24.51-25.92h3v21.34h-4.59
				c-17.46,0-23.63,6.17-23.63,23.1V315H197.86z"/>
			<path d="M312.68,295.25h-1.94c-4.23,13.4-13.75,21.52-28.39,21.52c-14.82,0-25.22-7.05-25.22-23.28
				c0-14.81,8.99-25.57,29.98-25.57h24.69v-5.64c0-10.76-4.41-16.93-16.05-16.93c-9.7,0-15.34,4.94-17.46,14.64l-17.99-4.06
				c3.18-15.7,14.99-25.75,36.15-25.75c23.99,0,34.21,11.29,34.21,31.92V315h-17.99V295.25z M311.8,283.78v-3.35h-21.52
				c-9.52,0-14.99,3.53-14.99,10.4c0,6,3.7,11.11,14.46,11.11C302.98,301.95,311.8,294.19,311.8,283.78z"/>
			<path d="M409.68,293.13h-1.24c-4.23,14.29-14.11,24.16-28.92,24.16c-19.05,0-30.16-15.35-30.16-43.39
				c0-28.39,11.29-44.09,30.69-43.91c14.99-0.18,24.16,9.35,28.39,23.81h1.24v-52.03h18.87V315h-18.87V293.13z M409.68,277.26v-6.35
				c0-14.29-8.29-23.81-21.16-23.81c-13.75,0-20.46,8.64-20.46,26.8c0,17.82,6.35,26.45,20.46,26.45
				C401.22,300.36,409.68,291.37,409.68,277.26z"/>
			<path d="M447.78,274.61c0-28.04,15.87-44.62,41.8-44.62c25.04,0,37.21,15.17,37.21,37.92c0,3.18,0,6.88-0.35,11.11h-59.79
				c1.41,14.99,8.99,22.57,23.1,22.57c13.23,0,17.81-6.35,20.1-14.29l16.23,4.59c-3.88,14.99-14.29,25.22-36.51,25.22
				C464.18,317.11,447.78,302.3,447.78,274.61z M466.82,266.32h42.5c-0.71-14.29-7.05-21.69-20.28-21.69
				C476.17,244.63,468.59,251.51,466.82,266.32z"/>
			<path d="M653.77,315.35c-4.06,0.71-7.94,0.88-11.29,0.88c-12.52,0-24.69-4.23-35.62-10.93c-7.23,7.23-19.4,11.46-33.16,11.46
				c-19.58,0-33.33-9.52-33.33-28.4c0-16.22,10.4-24.87,25.22-30.69c-3.35-7.58-5.29-14.99-5.29-21.16
				c0-20.63,15.34-29.45,32.1-29.45c20.81,0,29.63,9.88,29.63,23.28c0,19.58-20.28,25.93-36.68,29.45
				c6.35,10.76,16.05,20.99,27.69,28.22c10.23-11.99,16.05-25.22,18.52-39.5l17.11,2.29c-2.82,17.46-11.99,31.57-25.92,42.33
				c6.7,2.82,13.75,4.41,20.99,4.41c2.29,0,6.17,0,9.35-0.18L653.77,315.35z M596.98,298.24c-11.99-9.7-21.87-22.22-28.39-34.39
				c-7.76,4.76-11.11,11.81-11.11,20.28c0,10.58,7.05,17.99,21.69,17.99C586.58,302.12,592.04,300.71,596.98,298.24z M581.64,252.57
				c15.52-4.76,23.46-10.94,23.46-20.46c0-6.7-3.7-11.11-12.35-11.11c-9.35,0-14.81,5.64-14.81,15.52
				C577.94,241.46,579.35,246.92,581.64,252.57z"/>
			<path d="M703.69,345.33c-31.39,0-40.56-6.7-40.56-17.28c0-7.23,7.76-12.52,19.05-14.99v-0.71c-7.41-1.41-11.29-5.29-11.29-11.11
				c0-4.41,3.53-8.29,9.35-11.11l6.35-3.53c-12.34-4.06-18.87-13.05-18.87-25.57c0-18.7,13.58-28.92,36.51-28.92h41.09v14.64h-9.52
				c-4.41,0-9.7-0.35-16.75-0.88l-0.18,1.59c10.93,2.12,20.11,6.7,20.11,17.64c0,14.82-12.52,23.81-35.63,23.81
				c-5.29,0-9.87-0.53-13.93-1.59l-1.94,3c-1.24,2.12-2.12,3.53-2.12,5.29c0,3.35,2.65,4.59,8.11,4.59c9.35,0,18.87-0.17,27.86-0.17
				c17.46,0,25.92,7.58,25.92,20.46C747.25,337.22,736.49,345.33,703.69,345.33z M732.08,321c0-4.76-3.35-8.11-11.46-8.11h-29.1
				c-8.99,0-13.58,4.59-13.58,9.17c0,6.7,5.29,9.52,26.81,9.52C726.97,331.58,732.08,328.05,732.08,321z M684.82,261.38
				c0,8.82,4.94,14.46,18.69,14.46s19.22-5.65,19.22-14.46c0-8.82-6.35-14.46-19.4-14.46C690.11,246.92,684.82,252.74,684.82,261.38
				z"/>
			<path d="M814.45,295.25h-1.94c-4.23,13.4-13.75,21.52-28.39,21.52c-14.82,0-25.22-7.05-25.22-23.28
				c0-14.81,8.99-25.57,29.98-25.57h24.69v-5.64c0-10.76-4.41-16.93-16.05-16.93c-9.7,0-15.34,4.94-17.46,14.64l-17.99-4.06
				c3.18-15.7,14.99-25.75,36.15-25.75c23.99,0,34.21,11.29,34.21,31.92V315h-17.99V295.25z M813.57,283.78v-3.35h-21.52
				c-9.52,0-14.99,3.53-14.99,10.4c0,6,3.7,11.11,14.46,11.11C804.75,301.95,813.57,294.19,813.57,283.78z"/>
			<path d="M856.25,218v-15.34h20.63V218H856.25z M856.96,315v-82.89H876V315H856.96z"/>
			<path d="M920.1,315h-18.87v-82.89h18.52v21.87h1.59c4.59-15.35,15.17-23.99,29.1-23.99c17.28,0,25.57,11.64,25.57,29.63V315
				h-18.87v-50.44c0-10.05-4.41-17.46-15.87-17.46c-12.7,0-21.16,8.47-21.16,20.99V315z"/>
		</g>
	</g>
</g>
<g id="Layer_2" class="st1">
	<g class="st2">
		<g>
			<path d="M440.59,101.79c-27.74-34.08-69.68-56.28-117.03-56.28c-82.74,0-149.82,67.07-149.82,149.82l81.53-0.16
				c0-37.71,30.57-68.28,68.28-68.28c21,0,39.79,9.48,52.32,24.4c0,0,1.38,50.46,10.19,52.87c9.22,2.52,5.46-22.78,14.19-23.21
				c14.79-0.73,39.98,41.27,48.04,33.21c5.8-5.8-14.65-24.1-11.92-26.66c2.66-2.5,19.66,18.93,25.14,13.45
				c5.48-5.48-15.15-22.89-12.25-25.79s20.57,17.47,26.44,11.61c4.84-4.84-14.83-22.57-12.57-24.83
				c3.22-3.22,20.51,17.74,25.31,12.09C493.45,168.11,452.97,116.99,440.59,101.79z"/>
			<path class="st0" d="M445.8,215.68c1.11,0,2.07-0.4,2.86-1.18c3.77-3.77-2.26-11.88-7.1-18.4c-2.36-3.18-5.6-7.54-4.83-8.26
				c0.74-0.7,4.9,2.83,7.94,5.42c6.39,5.44,13.63,11.6,17.22,8.02c3.49-3.49-2.11-10.7-7.06-17.05c-2.72-3.49-6.1-7.83-5.19-8.74
				c0.89-0.89,5.17,2.31,8.62,4.87c6.59,4.92,14.07,10.49,17.82,6.73c3.19-3.19-2.52-10.53-7.55-17c-2.24-2.88-5.62-7.23-5.03-7.83
				c1.09-1.09,5.53,2.39,9.45,5.47c6.04,4.75,12.88,10.13,15.89,6.59c5.58-6.56-38.87-61.85-47.84-72.87l-0.4,0.32l0.4-0.32
				C411.78,65.58,368.98,45,323.56,45c-82.89,0-150.33,67.44-150.33,150.33v0.51l82.55-0.16v-0.51c0-37.37,30.4-67.77,67.77-67.77
				c20.02,0,38.89,8.78,51.81,24.08c0.11,3.82,1.67,50.74,10.56,53.16c1.28,0.35,2.42,0.22,3.39-0.37c2.61-1.59,3.59-6.2,4.64-11.08
				c1.22-5.68,2.48-11.56,6.31-11.75c7.13-0.36,17.13,9.94,25.97,19.01c7.94,8.15,14.79,15.19,19.52,15.22
				C445.78,215.68,445.79,215.68,445.8,215.68z M436.94,186.75c-0.36,0-0.66,0.11-0.91,0.35c-1.37,1.28,0.67,4.18,4.71,9.61
				c4.37,5.87,10.35,13.92,7.2,17.07c-0.59,0.59-1.29,0.88-2.13,0.88c-0.01,0-0.02,0-0.02,0c-4.3-0.03-11.34-7.26-18.8-14.92
				c-9.43-9.68-19.16-19.7-26.75-19.32c-4.62,0.23-5.96,6.49-7.26,12.55c-0.95,4.45-1.94,9.06-4.17,10.42
				c-0.74,0.45-1.58,0.53-2.59,0.26c-6.93-1.89-9.43-38.46-9.81-52.39l0-0.18l-0.11-0.14c-13.12-15.62-32.33-24.58-52.71-24.58
				c-37.76,0-68.52,30.58-68.79,68.28l-80.51,0.16c0.28-82.09,67.15-148.8,149.3-148.8c45.11,0,87.63,20.44,116.64,56.09
				c25.61,31.46,51.5,67.27,47.85,71.56c-2.38,2.8-9.09-2.48-14.48-6.73c-5.06-3.98-9.06-7.13-10.8-5.39
				c-1.18,1.18,0.88,3.96,4.94,9.17c4.3,5.53,10.19,13.1,7.63,15.65c-3.13,3.13-10.54-2.39-16.49-6.83
				c-4.9-3.65-8.44-6.29-9.94-4.78c-1.54,1.54,1.25,5.12,5.11,10.09c4.45,5.73,10,12.85,7.15,15.71
				c-2.92,2.92-10.38-3.43-15.84-8.07C441.11,188.91,438.49,186.75,436.94,186.75z"/>
		</g>
		<g>
			<path d="M220.37,473.39c27.74,34.08,69.68,56.28,117.03,56.28c82.74,0,149.82-67.07,149.82-149.82l-81.53,0.16
				c0,37.71-30.57,68.28-68.28,68.28c-21,0-39.79-9.48-52.32-24.4c0,0-1.38-50.46-10.19-52.87c-9.22-2.52-5.46,22.78-14.19,23.21
				c-14.79,0.73-39.98-41.27-48.04-33.21c-5.8,5.8,14.65,24.1,11.92,26.66c-2.66,2.5-19.66-18.93-25.14-13.45
				c-5.48,5.48,15.15,22.89,12.25,25.79c-2.9,2.9-20.57-17.47-26.44-11.61c-4.84,4.84,14.83,22.57,12.57,24.83
				c-3.22,3.22-20.51-17.74-25.31-12.09C167.52,407.06,207.99,458.19,220.37,473.39z"/>
			<path class="st0" d="M215.16,359.49c-1.11,0-2.07,0.4-2.86,1.18c-3.77,3.77,2.26,11.88,7.1,18.4c2.36,3.18,5.6,7.54,4.83,8.26
				c-0.74,0.7-4.9-2.83-7.94-5.42c-6.39-5.44-13.63-11.6-17.22-8.02c-3.49,3.49,2.11,10.7,7.06,17.05c2.72,3.49,6.1,7.83,5.19,8.74
				c-0.89,0.89-5.17-2.31-8.62-4.87c-6.59-4.92-14.07-10.49-17.82-6.73c-3.19,3.19,2.52,10.53,7.55,17
				c2.24,2.88,5.62,7.23,5.03,7.83c-1.09,1.09-5.53-2.39-9.45-5.47c-6.04-4.75-12.88-10.13-15.89-6.59
				c-5.58,6.56,38.87,61.85,47.84,72.87l0.4-0.32l-0.4,0.32c29.21,35.88,72.01,56.46,117.43,56.46
				c82.89,0,150.33-67.44,150.33-150.33v-0.51l-82.55,0.16v0.51c0,37.37-30.4,67.77-67.77,67.77c-20.02,0-38.89-8.78-51.81-24.08
				c-0.11-3.82-1.67-50.74-10.56-53.16c-1.28-0.35-2.42-0.22-3.39,0.37c-2.61,1.59-3.59,6.2-4.64,11.08
				c-1.22,5.68-2.48,11.56-6.31,11.75c-7.13,0.36-17.13-9.94-25.97-19.01c-7.94-8.15-14.79-15.19-19.52-15.22
				C215.18,359.49,215.17,359.49,215.16,359.49z M224.03,388.42c0.36,0,0.66-0.11,0.91-0.35c1.37-1.28-0.67-4.18-4.71-9.61
				c-4.37-5.87-10.35-13.92-7.2-17.07c0.59-0.59,1.29-0.88,2.13-0.88c0.01,0,0.02,0,0.02,0c4.3,0.03,11.34,7.26,18.8,14.92
				c9.43,9.68,19.16,19.7,26.75,19.32c4.62-0.23,5.96-6.49,7.26-12.55c0.95-4.45,1.94-9.06,4.17-10.42
				c0.74-0.45,1.58-0.53,2.59-0.26c6.93,1.89,9.43,38.46,9.81,52.39l0,0.18l0.11,0.14c13.12,15.62,32.33,24.58,52.71,24.58
				c37.76,0,68.52-30.58,68.79-68.28l80.51-0.16c-0.28,82.09-67.15,148.8-149.31,148.8c-45.11,0-87.63-20.44-116.64-56.09
				c-25.61-31.46-51.5-67.27-47.85-71.56c2.38-2.8,9.09,2.48,14.48,6.73c5.06,3.98,9.06,7.13,10.8,5.39
				c1.18-1.18-0.88-3.96-4.94-9.17c-4.3-5.53-10.19-13.1-7.63-15.65c3.13-3.13,10.54,2.39,16.49,6.83c4.9,3.65,8.44,6.29,9.94,4.78
				c1.54-1.54-1.25-5.12-5.11-10.09c-4.45-5.73-10-12.85-7.15-15.71c2.92-2.92,10.38,3.43,15.84,8.07
				C219.85,386.27,222.47,388.42,224.03,388.42z"/>
		</g>
		<g>
			<path d="M-80.2,263.66h-10.75v-14.17h10.75V228.8h17.59v20.69h22.48v14.17h-22.48v36.65c0,7.49,2.77,11.4,10.42,11.4
				c3.91,0,7.33-0.82,11.08-1.96l2.12,15.64c-5.7,1.79-9.61,2.77-17.27,2.77c-16.78,0-23.94-11.08-23.94-25.41V263.66z"/>
			<path d="M-22.7,326.04v-76.56h16.61v22.97l1.47,0.16c4.4-18.57,11.56-23.94,22.64-23.94h2.77v19.71h-4.24
				c-16.13,0-21.83,5.7-21.83,21.34v36.33H-22.7z"/>
			<path d="M83.34,307.8h-1.79c-3.91,12.38-12.7,19.87-26.22,19.87c-13.68,0-23.29-6.51-23.29-21.5c0-13.68,8.31-23.62,27.69-23.62
				h22.81v-5.21c0-9.94-4.07-15.64-14.82-15.64c-8.96,0-14.17,4.56-16.12,13.52l-16.62-3.75c2.93-14.5,13.85-23.78,33.39-23.78
				c22.15,0,31.6,10.42,31.6,29.48v48.87H83.34V307.8z M82.53,297.21v-3.09H62.66c-8.8,0-13.85,3.26-13.85,9.61
				c0,5.54,3.42,10.26,13.36,10.26C74.38,313.99,82.53,306.82,82.53,297.21z"/>
			<path d="M172.94,305.85h-1.14c-3.91,13.19-13.03,22.32-26.71,22.32c-17.59,0-27.85-14.17-27.85-40.07
				c0-26.22,10.42-40.72,28.34-40.56c13.85-0.16,22.32,8.63,26.22,21.99h1.14v-48.05h17.43v104.58h-17.43V305.85z M172.94,291.19
				v-5.87c0-13.19-7.66-21.99-19.55-21.99c-12.7,0-18.89,7.98-18.89,24.76c0,16.46,5.86,24.43,18.89,24.43
				C165.12,312.52,172.94,304.22,172.94,291.19z"/>
			<path d="M208.12,288.74c0-25.9,14.66-41.21,38.6-41.21c23.13,0,34.37,14.01,34.37,35.02c0,2.93,0,6.35-0.33,10.26h-55.22
				c1.3,13.85,8.31,20.85,21.34,20.85c12.22,0,16.45-5.86,18.57-13.19l14.99,4.24c-3.58,13.85-13.19,23.29-33.72,23.29
				C223.27,328,208.12,314.31,208.12,288.74z M225.72,281.09h39.26c-0.65-13.19-6.51-20.04-18.73-20.04
				C234.35,261.05,227.34,267.4,225.72,281.09z"/>
			<path d="M398.38,326.37c-3.75,0.65-7.33,0.82-10.42,0.82c-11.56,0-22.8-3.91-32.9-10.1c-6.68,6.68-17.92,10.59-30.62,10.59
				c-18.08,0-30.79-8.8-30.79-26.23c0-14.98,9.61-22.97,23.29-28.34c-3.09-7-4.89-13.85-4.89-19.55c0-19.06,14.17-27.2,29.64-27.2
				c19.22,0,27.37,9.12,27.37,21.5c0,18.08-18.73,23.95-33.88,27.2c5.86,9.94,14.82,19.38,25.58,26.06
				c9.45-11.08,14.82-23.29,17.1-36.49l15.8,2.12c-2.61,16.13-11.08,29.16-23.94,39.09c6.19,2.6,12.7,4.07,19.38,4.07
				c2.12,0,5.7,0,8.63-0.16L398.38,326.37z M345.93,310.57c-11.08-8.96-20.2-20.52-26.22-31.76c-7.17,4.4-10.26,10.91-10.26,18.73
				c0,9.77,6.51,16.61,20.04,16.61C336.32,314.15,341.37,312.85,345.93,310.57z M331.76,268.38c14.33-4.4,21.67-10.1,21.67-18.9
				c0-6.19-3.42-10.26-11.4-10.26c-8.63,0-13.68,5.21-13.68,14.33C328.34,258.12,329.64,263.17,331.76,268.38z"/>
			<path d="M444.49,354.06c-28.99,0-37.46-6.19-37.46-15.96c0-6.68,7.17-11.57,17.59-13.85v-0.65c-6.84-1.3-10.42-4.89-10.42-10.26
				c0-4.07,3.26-7.66,8.63-10.26l5.86-3.26c-11.4-3.75-17.43-12.05-17.43-23.62c0-17.27,12.54-26.71,33.72-26.71h37.95v13.52h-8.8
				c-4.07,0-8.96-0.33-15.47-0.82l-0.16,1.47c10.1,1.96,18.57,6.19,18.57,16.29c0,13.68-11.57,21.99-32.91,21.99
				c-4.88,0-9.12-0.49-12.87-1.47l-1.79,2.77c-1.14,1.96-1.96,3.26-1.96,4.89c0,3.09,2.44,4.24,7.49,4.24
				c8.63,0,17.43-0.16,25.74-0.16c16.12,0,23.94,7,23.94,18.89C484.72,346.57,474.79,354.06,444.49,354.06z M470.71,331.58
				c0-4.4-3.09-7.49-10.59-7.49h-26.88c-8.31,0-12.54,4.24-12.54,8.47c0,6.19,4.89,8.8,24.76,8.8
				C465.99,341.36,470.71,338.1,470.71,331.58z M427.06,276.52c0,8.14,4.56,13.36,17.27,13.36s17.76-5.21,17.76-13.36
				s-5.86-13.36-17.92-13.36C431.95,263.17,427.06,268.54,427.06,276.52z"/>
			<path d="M546.79,307.8H545c-3.91,12.38-12.7,19.87-26.22,19.87c-13.68,0-23.29-6.51-23.29-21.5c0-13.68,8.31-23.62,27.69-23.62
				h22.81v-5.21c0-9.94-4.07-15.64-14.82-15.64c-8.96,0-14.17,4.56-16.12,13.52l-16.62-3.75c2.93-14.5,13.85-23.78,33.39-23.78
				c22.15,0,31.6,10.42,31.6,29.48v48.87h-16.61V307.8z M545.98,297.21v-3.09H526.1c-8.8,0-13.85,3.26-13.85,9.61
				c0,5.54,3.42,10.26,13.36,10.26C537.83,313.99,545.98,306.82,545.98,297.21z"/>
			<path d="M585.4,236.45v-14.17h19.06v14.17H585.4z M586.05,326.04v-76.56h17.59v76.56H586.05z"/>
			<path d="M644.37,326.04h-17.43v-76.56h17.1v20.2h1.46c4.24-14.17,14.01-22.15,26.88-22.15c15.96,0,23.62,10.75,23.62,27.36v51.15
				h-17.43v-46.59c0-9.29-4.07-16.13-14.66-16.13c-11.73,0-19.54,7.82-19.54,19.38V326.04z"/>
		</g>
	</g>
</g>
</svg>
